G75*
%MOIN*%
%OFA0B0*%
%FSLAX24Y24*%
%IPPOS*%
%LPD*%
%AMOC8*
5,1,8,0,0,1.08239X$1,22.5*
%
%ADD10OC8,0.0580*%
%ADD11C,0.0580*%
%ADD12OC8,0.0614*%
%ADD13C,0.1266*%
%ADD14C,0.0496*%
%ADD15OC8,0.0680*%
%ADD16OC8,0.0780*%
%ADD17C,0.0780*%
%ADD18C,0.0620*%
%ADD19C,0.0900*%
%ADD20C,0.0580*%
%ADD21C,0.0160*%
D10*
X009780Y001575D03*
X010780Y001575D03*
X011905Y001575D03*
X014905Y001575D03*
X018900Y001782D03*
X019900Y001782D03*
X013800Y003823D03*
X012800Y003823D03*
X017217Y007762D03*
X013717Y009200D03*
X012717Y009200D03*
X011717Y009200D03*
X010717Y009200D03*
X009717Y009200D03*
X008355Y007947D03*
X015217Y009825D03*
X015967Y010325D03*
X015217Y010825D03*
X017217Y010762D03*
X013717Y012200D03*
X012717Y012200D03*
X011717Y012200D03*
X010717Y012200D03*
X009717Y012200D03*
X004717Y011700D03*
X003717Y011700D03*
X022403Y011620D03*
X023403Y011620D03*
D11*
X008355Y008747D03*
D12*
X004548Y008039D03*
X003564Y008039D03*
X003564Y007212D03*
X003564Y006188D03*
X003564Y005361D03*
X004548Y005361D03*
D13*
X002387Y004060D03*
X002057Y006700D03*
X002387Y009340D03*
D14*
X007546Y006011D02*
X007546Y005514D01*
X009514Y005514D02*
X009514Y006011D01*
X009514Y004073D02*
X009514Y003577D01*
X007546Y003577D02*
X007546Y004073D01*
D15*
X011717Y004887D03*
X012717Y004887D03*
X013717Y004887D03*
X014717Y004887D03*
X014717Y007887D03*
X013717Y007887D03*
X012717Y007887D03*
X011717Y007887D03*
D16*
X019717Y006700D03*
X020717Y007700D03*
X021717Y006700D03*
X020717Y005700D03*
X021717Y004700D03*
X020717Y003700D03*
X021717Y008700D03*
X020717Y009700D03*
D17*
X025717Y007700D03*
X025717Y005700D03*
D18*
X023217Y002010D02*
X023217Y001390D01*
X022217Y001390D02*
X022217Y002010D01*
X021217Y002010D02*
X021217Y001390D01*
X020717Y011390D02*
X020717Y012010D01*
X019717Y012010D02*
X019717Y011390D01*
X018717Y011390D02*
X018717Y012010D01*
D19*
X006327Y008683D03*
X005335Y009683D03*
X001405Y008683D03*
X001405Y007703D03*
X001405Y005723D03*
X001405Y004743D03*
X005335Y003774D03*
X006331Y004746D03*
X005339Y006719D03*
D20*
X018427Y005200D02*
X019007Y005200D01*
X019007Y003200D02*
X018427Y003200D01*
D21*
X005257Y003840D02*
X004557Y004540D01*
X004557Y005240D01*
X004548Y005361D01*
X004837Y006220D02*
X003577Y006220D01*
X003564Y006188D01*
X004837Y006220D02*
X005257Y006640D01*
X005339Y006719D01*
X005397Y006640D01*
X006237Y005800D01*
X007497Y005800D01*
X007546Y005762D01*
X009037Y005240D02*
X009037Y006500D01*
X011697Y009160D01*
X011717Y009200D01*
X011837Y009160D01*
X012397Y008600D01*
X012957Y008600D01*
X013657Y007900D01*
X013717Y007887D01*
X013797Y008740D02*
X014637Y007900D01*
X014717Y007887D01*
X014637Y007760D01*
X012677Y005800D01*
X009597Y005800D01*
X009514Y005762D01*
X009037Y005240D02*
X009457Y004820D01*
X009457Y003840D01*
X009514Y003825D01*
X008757Y003560D02*
X009317Y003000D01*
X010857Y003000D01*
X012677Y004820D01*
X012717Y004887D01*
X013717Y004887D02*
X013797Y004960D01*
X015337Y006500D01*
X015337Y008320D01*
X020937Y008320D01*
X021637Y007620D01*
X021637Y006780D01*
X021717Y006700D01*
X021497Y006080D02*
X020797Y006780D01*
X020797Y007620D01*
X020717Y007700D01*
X019957Y008740D02*
X017297Y011400D01*
X011837Y011400D01*
X009737Y009300D01*
X009717Y009200D01*
X009597Y009160D01*
X009597Y007480D01*
X008757Y006640D01*
X008757Y003560D01*
X008057Y003840D02*
X008057Y007480D01*
X007777Y007760D01*
X007777Y008740D01*
X008337Y008740D01*
X008355Y008747D01*
X008477Y008880D01*
X009597Y010000D01*
X009597Y012100D01*
X009717Y012200D01*
X009737Y012240D01*
X010717Y012240D01*
X010717Y012200D01*
X010717Y012240D02*
X011697Y012240D01*
X011717Y012200D01*
X011837Y012240D01*
X012677Y012240D01*
X012717Y012200D01*
X012817Y012240D01*
X013657Y012240D01*
X013717Y012200D01*
X016877Y010420D02*
X017157Y010700D01*
X017217Y010762D01*
X016877Y010420D02*
X016037Y010420D01*
X015967Y010325D01*
X015197Y009860D02*
X015217Y009825D01*
X015197Y009860D02*
X015057Y010000D01*
X011697Y010000D01*
X010997Y009300D01*
X010717Y009300D01*
X010717Y009200D01*
X012717Y009200D02*
X012817Y009300D01*
X013097Y009300D01*
X013517Y009720D01*
X013937Y009720D01*
X015337Y008320D01*
X013797Y008740D02*
X013797Y009160D01*
X013717Y009200D01*
X018717Y011700D02*
X018837Y011680D01*
X018837Y010700D01*
X020517Y009020D01*
X021077Y009020D01*
X021357Y009300D01*
X022057Y009300D01*
X022337Y009020D01*
X022337Y006360D01*
X022057Y006080D01*
X022337Y005800D01*
X022337Y003840D01*
X023177Y003000D01*
X023177Y001740D01*
X023217Y001700D01*
X022337Y001740D02*
X022217Y001700D01*
X022337Y001740D02*
X021497Y002580D01*
X020937Y002580D01*
X020377Y003140D01*
X018837Y003140D01*
X018717Y003200D01*
X018277Y002580D02*
X017857Y003000D01*
X017857Y003420D01*
X019117Y004680D01*
X019677Y004680D01*
X020657Y005660D01*
X020717Y005700D01*
X021497Y006080D02*
X022057Y006080D01*
X018717Y005200D02*
X018697Y005100D01*
X017017Y003420D01*
X018137Y002300D01*
X019117Y002300D01*
X019537Y001880D01*
X019817Y001880D01*
X019900Y001782D01*
X020657Y001740D02*
X019817Y002580D01*
X018277Y002580D01*
X017017Y003420D02*
X016877Y003280D01*
X013517Y003280D01*
X013097Y003700D01*
X012817Y003700D01*
X012800Y003823D01*
X012677Y003700D01*
X011977Y003700D01*
X010997Y002720D01*
X009177Y002720D01*
X008057Y003840D01*
X007546Y003825D02*
X007497Y003840D01*
X005397Y003840D01*
X005335Y003774D01*
X005257Y003840D01*
X002387Y004060D02*
X002317Y004120D01*
X002317Y006500D01*
X002177Y006640D01*
X002057Y006700D01*
X002177Y006780D01*
X002177Y009160D01*
X002317Y009300D01*
X002387Y009340D01*
X002457Y009440D01*
X003717Y010700D01*
X003717Y011700D01*
X006377Y008740D02*
X006327Y008683D01*
X006237Y008600D01*
X004137Y008600D01*
X003577Y008040D01*
X003564Y008039D01*
X006377Y008740D02*
X007777Y008740D01*
X019957Y008740D02*
X021637Y008740D01*
X021717Y008700D01*
X020797Y009720D02*
X020717Y009700D01*
X020797Y009720D02*
X020797Y011680D01*
X020717Y011700D01*
X023403Y011620D02*
X023457Y011540D01*
X023457Y011260D01*
X025697Y009020D01*
X025697Y007760D01*
X025717Y007700D01*
X025697Y007620D01*
X025697Y005800D01*
X025717Y005700D01*
X021217Y001740D02*
X020657Y001740D01*
X021217Y001740D02*
X021217Y001700D01*
X011905Y001575D02*
X011837Y001600D01*
X010857Y001600D01*
X010780Y001575D01*
M02*
