G75*
%MOIN*%
%OFA0B0*%
%FSLAX24Y24*%
%IPPOS*%
%LPD*%
%AMOC8*
5,1,8,0,0,1.08239X$1,22.5*
%
%ADD10C,0.0040*%
%ADD11C,0.0050*%
%ADD12C,0.0060*%
%ADD13C,0.0030*%
%ADD14C,0.0080*%
%ADD15C,0.0100*%
%ADD16R,0.0150X0.0200*%
%ADD17R,0.0200X0.0150*%
%ADD18C,0.0070*%
%ADD19C,0.0020*%
D10*
X008199Y004017D02*
X008505Y004017D01*
X008659Y004017D02*
X008966Y004017D01*
X008812Y004017D02*
X008812Y004477D01*
X008659Y004324D01*
X008199Y004477D02*
X008199Y004017D01*
X011237Y002777D02*
X011237Y002547D01*
X011314Y002470D01*
X011391Y002547D01*
X011468Y002470D01*
X011544Y002547D01*
X011544Y002777D01*
X011698Y002777D02*
X011698Y002547D01*
X011775Y002470D01*
X011851Y002547D01*
X011928Y002470D01*
X012005Y002547D01*
X012005Y002777D01*
X012158Y002777D02*
X012158Y002547D01*
X012235Y002470D01*
X012312Y002547D01*
X012388Y002470D01*
X012465Y002547D01*
X012465Y002777D01*
X012619Y002547D02*
X012695Y002547D01*
X012695Y002470D01*
X012619Y002470D01*
X012619Y002547D01*
X012849Y002470D02*
X013079Y002470D01*
X013156Y002547D01*
X013079Y002623D01*
X012926Y002623D01*
X012849Y002700D01*
X012926Y002777D01*
X013156Y002777D01*
X013309Y002777D02*
X013386Y002777D01*
X013463Y002700D01*
X013539Y002777D01*
X013616Y002700D01*
X013616Y002470D01*
X013463Y002470D02*
X013463Y002700D01*
X013309Y002777D02*
X013309Y002470D01*
X013770Y002470D02*
X014000Y002470D01*
X014077Y002547D01*
X014077Y002700D01*
X014000Y002777D01*
X013770Y002777D01*
X013770Y002930D02*
X013770Y002470D01*
X014230Y002547D02*
X014307Y002470D01*
X014537Y002470D01*
X014537Y002700D01*
X014460Y002777D01*
X014307Y002777D01*
X014307Y002623D02*
X014537Y002623D01*
X014690Y002623D02*
X014921Y002777D01*
X015074Y002700D02*
X015074Y002547D01*
X015151Y002470D01*
X015304Y002470D01*
X015381Y002623D02*
X015074Y002623D01*
X015074Y002700D02*
X015151Y002777D01*
X015304Y002777D01*
X015381Y002700D01*
X015381Y002623D01*
X015534Y002623D02*
X015688Y002777D01*
X015765Y002777D01*
X015534Y002777D02*
X015534Y002470D01*
X015918Y002470D02*
X015995Y002470D01*
X015995Y002547D01*
X015918Y002547D01*
X015918Y002470D01*
X016148Y002547D02*
X016225Y002470D01*
X016455Y002470D01*
X016609Y002547D02*
X016685Y002470D01*
X016839Y002470D01*
X016916Y002547D01*
X016916Y002700D01*
X016839Y002777D01*
X016685Y002777D01*
X016609Y002700D01*
X016609Y002547D01*
X016455Y002777D02*
X016225Y002777D01*
X016148Y002700D01*
X016148Y002547D01*
X017069Y002470D02*
X017069Y002777D01*
X017146Y002777D01*
X017223Y002700D01*
X017299Y002777D01*
X017376Y002700D01*
X017376Y002470D01*
X017223Y002470D02*
X017223Y002700D01*
X014921Y002470D02*
X014690Y002623D01*
X014690Y002470D02*
X014690Y002930D01*
X014307Y002623D02*
X014230Y002547D01*
X013808Y001733D02*
X013808Y001382D01*
X013924Y001382D02*
X013691Y001382D01*
X013565Y001382D02*
X013448Y001499D01*
X013507Y001499D02*
X013332Y001499D01*
X013332Y001382D02*
X013332Y001733D01*
X013507Y001733D01*
X013565Y001674D01*
X013565Y001558D01*
X013507Y001499D01*
X013691Y001616D02*
X013808Y001733D01*
X008903Y005954D02*
X008596Y005954D01*
X008903Y006261D01*
X008903Y006338D01*
X008827Y006415D01*
X008673Y006415D01*
X008596Y006338D01*
X008136Y006415D02*
X008136Y005954D01*
X008443Y005954D01*
D11*
X010492Y005523D02*
X010642Y005373D01*
X010492Y005523D02*
X010942Y005523D01*
X010942Y005373D02*
X010942Y005673D01*
X010867Y005213D02*
X010492Y005213D01*
X010867Y005213D02*
X010942Y005138D01*
X010942Y004988D01*
X010867Y004912D01*
X010492Y004912D01*
X011204Y004153D02*
X011129Y004078D01*
X011129Y003777D01*
X011204Y003702D01*
X011354Y003702D01*
X011429Y003777D01*
X011590Y003777D02*
X011665Y003702D01*
X011815Y003702D01*
X011890Y003777D01*
X011890Y003928D01*
X011815Y004003D01*
X011740Y004003D01*
X011590Y003928D01*
X011590Y004153D01*
X011890Y004153D01*
X011429Y004078D02*
X011354Y004153D01*
X011204Y004153D01*
X017642Y003835D02*
X018092Y003835D01*
X018092Y003685D02*
X018092Y003986D01*
X017792Y003685D02*
X017642Y003835D01*
X017642Y003525D02*
X017642Y003225D01*
X018092Y003225D01*
X017867Y003225D02*
X017867Y003375D01*
X017925Y002131D02*
X018000Y001980D01*
X018150Y001830D01*
X018150Y002055D01*
X018225Y002131D01*
X018300Y002131D01*
X018375Y002055D01*
X018375Y001905D01*
X018300Y001830D01*
X018150Y001830D01*
X018300Y001670D02*
X018375Y001595D01*
X018375Y001445D01*
X018300Y001370D01*
X018000Y001370D01*
X017925Y001445D01*
X017925Y001595D01*
X018000Y001670D01*
X020492Y002775D02*
X020492Y003075D01*
X020567Y003075D01*
X020867Y002775D01*
X020942Y002775D01*
X020993Y002825D02*
X021143Y002825D01*
X021068Y002825D02*
X021068Y002450D01*
X020993Y002375D01*
X020918Y002375D01*
X020842Y002450D01*
X021303Y002375D02*
X021303Y002825D01*
X021528Y002825D01*
X021603Y002750D01*
X021603Y002600D01*
X021528Y002525D01*
X021303Y002525D01*
X021763Y002375D02*
X022063Y002675D01*
X022063Y002750D01*
X021988Y002825D01*
X021838Y002825D01*
X021763Y002750D01*
X021763Y002375D02*
X022063Y002375D01*
X022299Y001015D02*
X022242Y000959D01*
X022299Y001015D02*
X022413Y001015D01*
X022469Y000959D01*
X022469Y000902D01*
X022242Y000675D01*
X022469Y000675D01*
X023242Y000732D02*
X023299Y000675D01*
X023413Y000675D01*
X023469Y000732D01*
X023469Y000788D01*
X023413Y000845D01*
X023356Y000845D01*
X023413Y000845D02*
X023469Y000902D01*
X023469Y000959D01*
X023413Y001015D01*
X023299Y001015D01*
X023242Y000959D01*
X021469Y000675D02*
X021242Y000675D01*
X021356Y000675D02*
X021356Y001015D01*
X021242Y000902D01*
X021567Y003775D02*
X021492Y003850D01*
X021492Y004000D01*
X021567Y004075D01*
X021642Y004075D01*
X021717Y004000D01*
X021792Y004075D01*
X021867Y004075D01*
X021942Y004000D01*
X021942Y003850D01*
X021867Y003775D01*
X021717Y003925D02*
X021717Y004000D01*
X020867Y004825D02*
X020942Y004900D01*
X020942Y005050D01*
X020867Y005125D01*
X020717Y005125D01*
X020642Y005050D01*
X020642Y004975D01*
X020717Y004825D01*
X020492Y004825D01*
X020492Y005125D01*
X019867Y005775D02*
X019792Y005775D01*
X019717Y005850D01*
X019717Y006000D01*
X019792Y006075D01*
X019867Y006075D01*
X019942Y006000D01*
X019942Y005850D01*
X019867Y005775D01*
X019717Y005850D02*
X019642Y005775D01*
X019567Y005775D01*
X019492Y005850D01*
X019492Y006000D01*
X019567Y006075D01*
X019642Y006075D01*
X019717Y006000D01*
X021492Y006050D02*
X021492Y005900D01*
X021567Y005825D01*
X021642Y006125D02*
X021942Y005825D01*
X021942Y006125D01*
X021642Y006125D02*
X021567Y006125D01*
X021492Y006050D01*
X020717Y008325D02*
X020717Y008625D01*
X020492Y008550D02*
X020717Y008325D01*
X020942Y008550D02*
X020492Y008550D01*
X021492Y009525D02*
X021642Y009375D01*
X021492Y009525D02*
X021942Y009525D01*
X021942Y009375D02*
X021942Y009675D01*
X020942Y010400D02*
X020867Y010325D01*
X020717Y010325D01*
X020717Y010550D01*
X020792Y010625D01*
X020867Y010625D01*
X020942Y010550D01*
X020942Y010400D01*
X020717Y010325D02*
X020567Y010475D01*
X020492Y010625D01*
X020742Y010732D02*
X020799Y010675D01*
X020913Y010675D01*
X020969Y010732D01*
X020969Y010788D01*
X020913Y010845D01*
X020856Y010845D01*
X020913Y010845D02*
X020969Y010902D01*
X020969Y010959D01*
X020913Y011015D01*
X020799Y011015D01*
X020742Y010959D01*
X019969Y010959D02*
X019969Y010902D01*
X019742Y010675D01*
X019969Y010675D01*
X019969Y010959D02*
X019913Y011015D01*
X019799Y011015D01*
X019742Y010959D01*
X018969Y010675D02*
X018742Y010675D01*
X018856Y010675D02*
X018856Y011015D01*
X018742Y010902D01*
X018803Y012375D02*
X018803Y012825D01*
X019028Y012825D01*
X019103Y012750D01*
X019103Y012600D01*
X019028Y012525D01*
X018803Y012525D01*
X018568Y012450D02*
X018568Y012825D01*
X018493Y012825D02*
X018643Y012825D01*
X019263Y012675D02*
X019413Y012825D01*
X019413Y012375D01*
X019263Y012375D02*
X019563Y012375D01*
X018568Y012450D02*
X018493Y012375D01*
X018418Y012375D01*
X018342Y012450D01*
X015117Y011370D02*
X015117Y011212D01*
X014567Y011150D02*
X014567Y009500D01*
X015117Y009438D02*
X015117Y009280D01*
X015117Y010212D02*
X015117Y010438D01*
X014567Y011150D02*
X014615Y011185D01*
X014665Y011218D01*
X014717Y011249D01*
X014771Y011276D01*
X014826Y011300D01*
X014883Y011320D01*
X014940Y011338D01*
X014998Y011352D01*
X015057Y011363D01*
X015117Y011370D01*
X015179Y011374D01*
X015242Y011375D01*
X015304Y011371D01*
X015366Y011364D01*
X015427Y011354D01*
X015488Y011339D01*
X015548Y011321D01*
X015607Y011300D01*
X015664Y011275D01*
X015719Y011247D01*
X015773Y011216D01*
X015825Y011181D01*
X015875Y011143D01*
X015922Y011103D01*
X015967Y011059D01*
X016010Y011014D01*
X016049Y010965D01*
X016086Y010915D01*
X016119Y010862D01*
X016150Y010808D01*
X016177Y010751D01*
X016200Y010694D01*
X016220Y010635D01*
X016220Y010015D02*
X016200Y009955D01*
X016176Y009896D01*
X016148Y009839D01*
X016117Y009784D01*
X016082Y009730D01*
X016045Y009679D01*
X016004Y009630D01*
X015960Y009584D01*
X015914Y009540D01*
X015865Y009499D01*
X015814Y009461D01*
X015761Y009427D01*
X015705Y009395D01*
X015648Y009368D01*
X015589Y009343D01*
X015529Y009323D01*
X015468Y009305D01*
X015406Y009292D01*
X015343Y009283D01*
X015280Y009277D01*
X015216Y009275D01*
X015152Y009277D01*
X015089Y009283D01*
X015026Y009292D01*
X014964Y009306D01*
X014903Y009323D01*
X014843Y009344D01*
X014784Y009368D01*
X014727Y009396D01*
X014671Y009428D01*
X014618Y009463D01*
X014567Y009500D01*
X012932Y009912D02*
X012592Y009912D01*
X012592Y010083D01*
X012649Y010139D01*
X012762Y010139D01*
X012819Y010083D01*
X012819Y009912D01*
X012819Y010026D02*
X012932Y010139D01*
X012932Y010272D02*
X012706Y010498D01*
X012649Y010498D01*
X012592Y010442D01*
X012592Y010328D01*
X012649Y010272D01*
X012932Y010272D02*
X012932Y010498D01*
X010843Y010882D02*
X010502Y010882D01*
X010502Y011052D01*
X010559Y011109D01*
X010672Y011109D01*
X010729Y011052D01*
X010729Y010882D01*
X010729Y010995D02*
X010843Y011109D01*
X010672Y011241D02*
X010672Y011468D01*
X010502Y011411D02*
X010672Y011241D01*
X010502Y011411D02*
X010843Y011411D01*
X009876Y010488D02*
X009932Y010432D01*
X009932Y010318D01*
X009876Y010261D01*
X009932Y010129D02*
X009819Y010016D01*
X009819Y010073D02*
X009819Y009902D01*
X009932Y009902D02*
X009592Y009902D01*
X009592Y010073D01*
X009649Y010129D01*
X009762Y010129D01*
X009819Y010073D01*
X009649Y010261D02*
X009592Y010318D01*
X009592Y010432D01*
X009649Y010488D01*
X009706Y010488D01*
X009762Y010432D01*
X009819Y010488D01*
X009876Y010488D01*
X009762Y010432D02*
X009762Y010375D01*
X007792Y009600D02*
X007492Y009600D01*
X007717Y009825D01*
X007717Y009375D01*
X007332Y009450D02*
X007257Y009375D01*
X007107Y009375D01*
X007032Y009450D01*
X007032Y009750D01*
X007107Y009825D01*
X007257Y009825D01*
X007332Y009750D01*
D12*
X009055Y008847D02*
X009055Y008647D01*
X008955Y008747D02*
X009155Y008747D01*
X007355Y008347D02*
X007357Y008410D01*
X007363Y008472D01*
X007373Y008534D01*
X007386Y008596D01*
X007404Y008656D01*
X007425Y008715D01*
X007450Y008773D01*
X007479Y008829D01*
X007511Y008883D01*
X007546Y008935D01*
X007584Y008984D01*
X007626Y009032D01*
X007670Y009076D01*
X007718Y009118D01*
X007767Y009156D01*
X007819Y009191D01*
X007873Y009223D01*
X007929Y009252D01*
X007987Y009277D01*
X008046Y009298D01*
X008106Y009316D01*
X008168Y009329D01*
X008230Y009339D01*
X008292Y009345D01*
X008355Y009347D01*
X008418Y009345D01*
X008480Y009339D01*
X008542Y009329D01*
X008604Y009316D01*
X008664Y009298D01*
X008723Y009277D01*
X008781Y009252D01*
X008837Y009223D01*
X008891Y009191D01*
X008943Y009156D01*
X008992Y009118D01*
X009040Y009076D01*
X009084Y009032D01*
X009126Y008984D01*
X009164Y008935D01*
X009199Y008883D01*
X009231Y008829D01*
X009260Y008773D01*
X009285Y008715D01*
X009306Y008656D01*
X009324Y008596D01*
X009337Y008534D01*
X009347Y008472D01*
X009353Y008410D01*
X009355Y008347D01*
X009353Y008284D01*
X009347Y008222D01*
X009337Y008160D01*
X009324Y008098D01*
X009306Y008038D01*
X009285Y007979D01*
X009260Y007921D01*
X009231Y007865D01*
X009199Y007811D01*
X009164Y007759D01*
X009126Y007710D01*
X009084Y007662D01*
X009040Y007618D01*
X008992Y007576D01*
X008943Y007538D01*
X008891Y007503D01*
X008837Y007471D01*
X008781Y007442D01*
X008723Y007417D01*
X008664Y007396D01*
X008604Y007378D01*
X008542Y007365D01*
X008480Y007355D01*
X008418Y007349D01*
X008355Y007347D01*
X008292Y007349D01*
X008230Y007355D01*
X008168Y007365D01*
X008106Y007378D01*
X008046Y007396D01*
X007987Y007417D01*
X007929Y007442D01*
X007873Y007471D01*
X007819Y007503D01*
X007767Y007538D01*
X007718Y007576D01*
X007670Y007618D01*
X007626Y007662D01*
X007584Y007710D01*
X007546Y007759D01*
X007511Y007811D01*
X007479Y007865D01*
X007450Y007921D01*
X007425Y007979D01*
X007404Y008038D01*
X007386Y008098D01*
X007373Y008160D01*
X007363Y008222D01*
X007357Y008284D01*
X007355Y008347D01*
X012317Y009800D02*
X012317Y009950D01*
X012367Y010000D01*
X012367Y011400D01*
X012317Y011450D01*
X012317Y011600D01*
X012319Y011617D01*
X012323Y011634D01*
X012330Y011650D01*
X012340Y011664D01*
X012353Y011677D01*
X012367Y011687D01*
X012383Y011694D01*
X012400Y011698D01*
X012417Y011700D01*
X013017Y011700D01*
X013034Y011698D01*
X013051Y011694D01*
X013067Y011687D01*
X013081Y011677D01*
X013094Y011664D01*
X013104Y011650D01*
X013111Y011634D01*
X013115Y011617D01*
X013117Y011600D01*
X013117Y011450D01*
X013067Y011400D01*
X013067Y010000D01*
X013117Y009950D01*
X013117Y009800D01*
X013115Y009783D01*
X013111Y009766D01*
X013104Y009750D01*
X013094Y009736D01*
X013081Y009723D01*
X013067Y009713D01*
X013051Y009706D01*
X013034Y009702D01*
X013017Y009700D01*
X012417Y009700D01*
X012400Y009702D01*
X012383Y009706D01*
X012367Y009713D01*
X012353Y009723D01*
X012340Y009736D01*
X012330Y009750D01*
X012323Y009766D01*
X012319Y009783D01*
X012317Y009800D01*
X018217Y011300D02*
X018317Y011200D01*
X019117Y011200D01*
X019217Y011300D01*
X019317Y011200D01*
X020117Y011200D01*
X020217Y011300D01*
X020317Y011200D01*
X021117Y011200D01*
X021217Y011300D01*
X021217Y012100D01*
X021117Y012200D01*
X020317Y012200D01*
X020217Y012100D01*
X020117Y012200D01*
X019317Y012200D01*
X019217Y012100D01*
X019117Y012200D01*
X018317Y012200D01*
X018217Y012100D01*
X018217Y011300D01*
X021217Y010150D02*
X022717Y010550D01*
X022717Y009700D01*
X023167Y009700D01*
X022717Y009700D02*
X022717Y007700D01*
X022367Y007700D01*
X022367Y005700D01*
X022717Y005700D01*
X022717Y003700D01*
X023167Y003700D01*
X022717Y003700D02*
X022717Y002850D01*
X021217Y003250D01*
X022717Y002850D02*
X024567Y002850D01*
X024567Y003700D01*
X024267Y003700D01*
X024567Y003700D02*
X025967Y003700D01*
X025967Y002500D01*
X026217Y002500D01*
X026217Y002950D01*
X026417Y002950D01*
X026417Y002500D01*
X026717Y002500D01*
X026717Y010550D01*
X026417Y010550D01*
X026417Y010900D01*
X026217Y010900D01*
X026217Y010550D01*
X025967Y010550D01*
X025967Y009700D01*
X024567Y009700D01*
X024267Y009700D01*
X024567Y009700D02*
X024567Y010550D01*
X022717Y010550D01*
X022717Y007700D02*
X022717Y005700D01*
X019217Y004800D02*
X019217Y004300D01*
X019117Y004200D01*
X019217Y004100D01*
X019217Y003600D01*
X018917Y003300D01*
X018917Y003200D01*
X018517Y003200D01*
X018517Y003300D01*
X018217Y003600D01*
X018217Y004100D01*
X018317Y004200D01*
X018217Y004300D01*
X018217Y004800D01*
X018517Y005100D01*
X018517Y005200D01*
X018917Y005200D01*
X018917Y005100D01*
X019217Y004800D01*
X020817Y002200D02*
X021617Y002200D01*
X021717Y002100D01*
X021817Y002200D01*
X022617Y002200D01*
X022717Y002100D01*
X022817Y002200D01*
X023617Y002200D01*
X023717Y002100D01*
X023717Y001300D01*
X023617Y001200D01*
X022817Y001200D01*
X022717Y001300D01*
X022617Y001200D01*
X021817Y001200D01*
X021717Y001300D01*
X021617Y001200D01*
X020817Y001200D01*
X020717Y001300D01*
X020717Y002100D01*
X020817Y002200D01*
X014405Y001875D02*
X014405Y001275D01*
X014403Y001258D01*
X014399Y001241D01*
X014392Y001225D01*
X014382Y001211D01*
X014369Y001198D01*
X014355Y001188D01*
X014339Y001181D01*
X014322Y001177D01*
X014305Y001175D01*
X014155Y001175D01*
X014105Y001225D01*
X012705Y001225D01*
X012655Y001175D01*
X012505Y001175D01*
X012488Y001177D01*
X012471Y001181D01*
X012455Y001188D01*
X012441Y001198D01*
X012428Y001211D01*
X012418Y001225D01*
X012411Y001241D01*
X012407Y001258D01*
X012405Y001275D01*
X012405Y001875D01*
X012407Y001892D01*
X012411Y001909D01*
X012418Y001925D01*
X012428Y001939D01*
X012441Y001952D01*
X012455Y001962D01*
X012471Y001969D01*
X012488Y001973D01*
X012505Y001975D01*
X012655Y001975D01*
X012705Y001925D01*
X014105Y001925D01*
X014155Y001975D01*
X014305Y001975D01*
X014322Y001973D01*
X014339Y001969D01*
X014355Y001962D01*
X014369Y001952D01*
X014382Y001939D01*
X014392Y001925D01*
X014399Y001909D01*
X014403Y001892D01*
X014405Y001875D01*
X010280Y000975D02*
X010235Y000977D01*
X010189Y000982D01*
X010145Y000990D01*
X010101Y001002D01*
X010058Y001018D01*
X010016Y001036D01*
X009976Y001058D01*
X009938Y001082D01*
X009902Y001109D01*
X009867Y001139D01*
X009836Y001172D01*
X009806Y001207D01*
X010280Y002175D02*
X010327Y002173D01*
X010375Y002167D01*
X010421Y002158D01*
X010467Y002145D01*
X010511Y002129D01*
X010555Y002108D01*
X010596Y002085D01*
X010635Y002059D01*
X010672Y002029D01*
X010707Y001996D01*
X010739Y001961D01*
X010768Y001924D01*
X010280Y002175D02*
X010234Y002173D01*
X010188Y002168D01*
X010142Y002159D01*
X010097Y002147D01*
X010054Y002131D01*
X010012Y002112D01*
X009971Y002089D01*
X009932Y002064D01*
X009896Y002036D01*
X009861Y002005D01*
X009829Y001971D01*
X009800Y001935D01*
X010280Y000975D02*
X010325Y000977D01*
X010371Y000982D01*
X010415Y000990D01*
X010459Y001002D01*
X010502Y001018D01*
X010544Y001036D01*
X010584Y001058D01*
X010622Y001082D01*
X010658Y001109D01*
X010693Y001139D01*
X010724Y001172D01*
X010754Y001207D01*
X005067Y011200D02*
X003367Y011200D01*
X003350Y011202D01*
X003333Y011206D01*
X003317Y011213D01*
X003303Y011223D01*
X003290Y011236D01*
X003280Y011250D01*
X003273Y011266D01*
X003269Y011283D01*
X003267Y011300D01*
X003267Y012100D01*
X003269Y012117D01*
X003273Y012134D01*
X003280Y012150D01*
X003290Y012164D01*
X003303Y012177D01*
X003317Y012187D01*
X003333Y012194D01*
X003350Y012198D01*
X003367Y012200D01*
X005067Y012200D01*
X005084Y012198D01*
X005101Y012194D01*
X005117Y012187D01*
X005131Y012177D01*
X005144Y012164D01*
X005154Y012150D01*
X005161Y012134D01*
X005165Y012117D01*
X005167Y012100D01*
X005167Y011300D01*
X005165Y011283D01*
X005161Y011266D01*
X005154Y011250D01*
X005144Y011236D01*
X005131Y011223D01*
X005117Y011213D01*
X005101Y011206D01*
X005084Y011202D01*
X005067Y011200D01*
X004367Y011700D02*
X004317Y011700D01*
X004117Y011700D02*
X004067Y011700D01*
D13*
X004118Y012315D02*
X004215Y012412D01*
X004215Y012508D01*
X004118Y012605D01*
X004017Y012605D02*
X004017Y012557D01*
X003824Y012363D01*
X003824Y012315D01*
X003722Y012363D02*
X003674Y012315D01*
X003577Y012315D01*
X003529Y012363D01*
X003529Y012557D01*
X003577Y012605D01*
X003674Y012605D01*
X003722Y012557D01*
X003824Y012605D02*
X004017Y012605D01*
X004315Y012508D02*
X004411Y012605D01*
X004411Y012315D01*
X004315Y012315D02*
X004508Y012315D01*
X003429Y012315D02*
X003332Y012412D01*
X003332Y012508D01*
X003429Y012605D01*
X011650Y010403D02*
X011650Y010210D01*
X011795Y010210D01*
X011746Y010306D01*
X011746Y010355D01*
X011795Y010403D01*
X011892Y010403D01*
X011940Y010355D01*
X011940Y010258D01*
X011892Y010210D01*
X011940Y010108D02*
X011843Y010012D01*
X011843Y010060D02*
X011843Y009915D01*
X011940Y009915D02*
X011650Y009915D01*
X011650Y010060D01*
X011698Y010108D01*
X011795Y010108D01*
X011843Y010060D01*
X013650Y010060D02*
X013650Y009915D01*
X013940Y009915D01*
X013843Y009915D02*
X013843Y010060D01*
X013795Y010108D01*
X013698Y010108D01*
X013650Y010060D01*
X013843Y010012D02*
X013940Y010108D01*
X013892Y010210D02*
X013940Y010258D01*
X013940Y010355D01*
X013892Y010403D01*
X013843Y010403D01*
X013795Y010355D01*
X013795Y010210D01*
X013892Y010210D01*
X013795Y010210D02*
X013698Y010306D01*
X013650Y010403D01*
X017182Y008914D02*
X017182Y008720D01*
X017231Y008619D02*
X017182Y008571D01*
X017182Y008426D01*
X017472Y008426D01*
X017376Y008426D02*
X017376Y008571D01*
X017327Y008619D01*
X017231Y008619D01*
X017376Y008522D02*
X017472Y008619D01*
X017472Y008720D02*
X017424Y008720D01*
X017231Y008914D01*
X017182Y008914D01*
X022197Y012412D02*
X022294Y012315D01*
X022394Y012363D02*
X022442Y012315D01*
X022539Y012315D01*
X022587Y012363D01*
X022688Y012363D02*
X022688Y012315D01*
X022688Y012363D02*
X022882Y012557D01*
X022882Y012605D01*
X022688Y012605D01*
X022587Y012557D02*
X022539Y012605D01*
X022442Y012605D01*
X022394Y012557D01*
X022394Y012363D01*
X022197Y012412D02*
X022197Y012508D01*
X022294Y012605D01*
X022983Y012605D02*
X023080Y012508D01*
X023080Y012412D01*
X022983Y012315D01*
X015346Y012465D02*
X015152Y012465D01*
X015249Y012465D02*
X015249Y012755D01*
X015152Y012658D01*
X015051Y012707D02*
X015051Y012513D01*
X015003Y012465D01*
X014906Y012465D01*
X014857Y012513D01*
X014857Y012707D01*
X014906Y012755D01*
X015003Y012755D01*
X015051Y012707D01*
X014954Y012562D02*
X015051Y012465D01*
D14*
X006906Y002554D02*
X000417Y002554D01*
X000417Y010900D01*
X006906Y010900D01*
X006906Y002554D01*
X007093Y002959D02*
X007093Y004691D01*
X009967Y004691D01*
X009967Y002959D01*
X007093Y002959D01*
X005296Y003747D02*
X005296Y009653D01*
X000257Y009653D01*
X000257Y003747D01*
X005296Y003747D01*
X007093Y004896D02*
X007093Y006629D01*
X009967Y006629D01*
X009967Y004896D01*
X007093Y004896D01*
X011217Y005387D02*
X011217Y005787D01*
X011217Y005987D01*
X011217Y005787D02*
X011217Y007387D01*
X015217Y007387D01*
X015217Y005387D01*
X011217Y005387D01*
D15*
X011434Y005887D02*
X011436Y005920D01*
X011442Y005953D01*
X011452Y005986D01*
X011465Y006016D01*
X011482Y006045D01*
X011503Y006072D01*
X011526Y006096D01*
X011552Y006117D01*
X011580Y006135D01*
X011611Y006149D01*
X011642Y006160D01*
X011675Y006167D01*
X011709Y006170D01*
X011742Y006169D01*
X011775Y006164D01*
X011808Y006155D01*
X011839Y006142D01*
X011868Y006126D01*
X011895Y006107D01*
X011920Y006084D01*
X011942Y006059D01*
X011961Y006031D01*
X011976Y006001D01*
X011988Y005970D01*
X011996Y005937D01*
X012000Y005904D01*
X012000Y005870D01*
X011996Y005837D01*
X011988Y005804D01*
X011976Y005773D01*
X011961Y005743D01*
X011942Y005715D01*
X011920Y005690D01*
X011895Y005667D01*
X011868Y005648D01*
X011839Y005632D01*
X011808Y005619D01*
X011775Y005610D01*
X011742Y005605D01*
X011709Y005604D01*
X011675Y005607D01*
X011642Y005614D01*
X011611Y005625D01*
X011580Y005639D01*
X011552Y005657D01*
X011526Y005678D01*
X011503Y005702D01*
X011482Y005729D01*
X011465Y005758D01*
X011452Y005788D01*
X011442Y005821D01*
X011436Y005854D01*
X011434Y005887D01*
X003520Y005879D02*
X003520Y006066D01*
X003520Y005973D02*
X002959Y005973D01*
X002959Y006066D02*
X002959Y005879D01*
X003053Y005645D02*
X002959Y005552D01*
X002959Y005271D01*
X003520Y005271D01*
X003520Y005552D01*
X003426Y005645D01*
X003053Y005645D01*
X002959Y006284D02*
X003520Y006658D01*
X002959Y006658D01*
X003239Y006892D02*
X003239Y007266D01*
X003239Y007500D02*
X002959Y007500D01*
X002959Y007873D01*
X003146Y007780D02*
X003239Y007873D01*
X003426Y007873D01*
X003520Y007780D01*
X003520Y007593D01*
X003426Y007500D01*
X003239Y007500D02*
X003146Y007687D01*
X003146Y007780D01*
X002959Y006284D02*
X003520Y006284D01*
X009585Y001178D02*
X009615Y001130D01*
X009648Y001085D01*
X009684Y001042D01*
X009722Y001001D01*
X009764Y000964D01*
X009808Y000929D01*
X009854Y000898D01*
X009903Y000869D01*
X009953Y000845D01*
X010005Y000824D01*
X010059Y000806D01*
X010113Y000793D01*
X010168Y000783D01*
X010224Y000777D01*
X010280Y000775D01*
X009574Y001951D02*
X009601Y001998D01*
X009631Y002043D01*
X009664Y002086D01*
X009700Y002126D01*
X009739Y002164D01*
X009780Y002199D01*
X009823Y002232D01*
X009868Y002261D01*
X009916Y002287D01*
X009965Y002310D01*
X010015Y002330D01*
X010066Y002346D01*
X010119Y002359D01*
X010172Y002368D01*
X010226Y002373D01*
X010280Y002375D01*
X010891Y001058D02*
X010855Y001019D01*
X010816Y000981D01*
X010776Y000947D01*
X010733Y000915D01*
X010688Y000887D01*
X010641Y000861D01*
X010592Y000838D01*
X010542Y000819D01*
X010491Y000803D01*
X010439Y000791D01*
X010387Y000782D01*
X010333Y000777D01*
X010280Y000775D01*
X010895Y002087D02*
X010859Y002127D01*
X010820Y002165D01*
X010779Y002200D01*
X010736Y002232D01*
X010691Y002262D01*
X010644Y002288D01*
X010595Y002310D01*
X010544Y002330D01*
X010493Y002346D01*
X010441Y002359D01*
X010387Y002368D01*
X010334Y002373D01*
X010280Y002375D01*
X004317Y011400D02*
X004317Y011700D01*
X004317Y012000D01*
X004117Y012000D02*
X004117Y011700D01*
X004117Y011400D01*
D16*
X012330Y001575D03*
X014480Y001575D03*
D17*
X012717Y009625D03*
X012717Y011775D03*
D18*
X019352Y008340D02*
X019982Y008340D01*
X019982Y008130D02*
X019982Y008550D01*
X019562Y008130D02*
X019352Y008340D01*
X019352Y007905D02*
X019982Y007485D01*
X019982Y007905D02*
X019352Y007485D01*
D19*
X019117Y004800D02*
X018317Y004800D01*
X018317Y004300D02*
X019117Y004300D01*
X019117Y004100D02*
X018317Y004100D01*
X018317Y003600D02*
X019117Y003600D01*
M02*
