G75*
%MOIN*%
%OFA0B0*%
%FSLAX24Y24*%
%IPPOS*%
%LPD*%
%AMOC8*
5,1,8,0,0,1.08239X$1,22.5*
%
%ADD10OC8,0.0580*%
%ADD11C,0.0580*%
%ADD12OC8,0.0614*%
%ADD13C,0.1266*%
%ADD14C,0.0496*%
%ADD15OC8,0.0680*%
%ADD16OC8,0.0780*%
%ADD17C,0.0780*%
%ADD18C,0.0620*%
%ADD19C,0.0900*%
%ADD20C,0.0580*%
%ADD21C,0.0160*%
%ADD22C,0.0100*%
D10*
X009780Y001575D03*
X010780Y001575D03*
X011905Y001575D03*
X014905Y001575D03*
X010717Y006700D03*
X010717Y007700D03*
X008355Y007947D03*
X011217Y009200D03*
X012717Y009200D03*
X014217Y009200D03*
X008717Y010700D03*
X008717Y011700D03*
X011217Y012200D03*
X012717Y012200D03*
X014217Y012200D03*
X004717Y011700D03*
X003717Y011700D03*
X024117Y011500D03*
X024117Y012500D03*
D11*
X008355Y008747D03*
D12*
X004548Y008039D03*
X003564Y008039D03*
X003564Y007212D03*
X003564Y006188D03*
X003564Y005361D03*
X004548Y005361D03*
D13*
X002387Y004060D03*
X002057Y006700D03*
X002387Y009340D03*
D14*
X007546Y006011D02*
X007546Y005514D01*
X009514Y005514D02*
X009514Y006011D01*
X009514Y004073D02*
X009514Y003577D01*
X007546Y003577D02*
X007546Y004073D01*
D15*
X011717Y004887D03*
X012717Y004887D03*
X013717Y004887D03*
X014717Y004887D03*
X014717Y007887D03*
X013717Y007887D03*
X012717Y007887D03*
X011717Y007887D03*
D16*
X019717Y006700D03*
X020717Y007700D03*
X021717Y006700D03*
X020717Y005700D03*
X021717Y004700D03*
X020717Y003700D03*
X021717Y008700D03*
X020717Y009700D03*
D17*
X025717Y007700D03*
X025717Y005700D03*
D18*
X023217Y002010D02*
X023217Y001390D01*
X022217Y001390D02*
X022217Y002010D01*
X021217Y002010D02*
X021217Y001390D01*
X020717Y011390D02*
X020717Y012010D01*
X021717Y012010D02*
X021717Y011390D01*
X022717Y011390D02*
X022717Y012010D01*
D19*
X006327Y008683D03*
X005335Y009683D03*
X001405Y008683D03*
X001405Y007703D03*
X001405Y005723D03*
X001405Y004743D03*
X005335Y003774D03*
X006331Y004746D03*
X005339Y006719D03*
D20*
X017427Y006700D02*
X018007Y006700D01*
X018007Y007700D02*
X017427Y007700D01*
X017427Y004700D02*
X018007Y004700D01*
X018007Y003700D02*
X017427Y003700D01*
D21*
X013717Y007700D02*
X009717Y003700D01*
X009514Y003825D01*
X013717Y007700D02*
X013717Y007887D01*
X019967Y008700D02*
X019967Y010950D01*
X020717Y011700D01*
X019967Y008700D02*
X020717Y007950D01*
X020717Y007700D01*
D22*
X001993Y000682D02*
X001801Y000490D01*
X025133Y000490D01*
X024942Y000682D01*
X024802Y001018D01*
X024802Y001382D01*
X023817Y001382D01*
X023817Y001480D02*
X024843Y001480D01*
X024802Y001382D02*
X024942Y001718D01*
X025199Y001976D01*
X025535Y002115D01*
X025899Y002115D01*
X026236Y001976D01*
X026427Y001784D01*
X026427Y011616D01*
X026236Y011424D01*
X025899Y011285D01*
X025535Y011285D01*
X025199Y011424D01*
X024942Y011682D01*
X024802Y012018D01*
X024802Y012382D01*
X024942Y012718D01*
X025133Y012910D01*
X024330Y012910D01*
X024557Y012682D01*
X024557Y012530D01*
X024147Y012530D01*
X024147Y012470D01*
X024557Y012470D01*
X024557Y012318D01*
X024320Y012080D01*
X024358Y012080D01*
X024697Y011740D01*
X024697Y011260D01*
X024358Y010920D01*
X023877Y010920D01*
X023537Y011260D01*
X023537Y011740D01*
X023877Y012080D01*
X023915Y012080D01*
X023677Y012318D01*
X023677Y012470D01*
X024087Y012470D01*
X024087Y012530D01*
X023677Y012530D01*
X023677Y012682D01*
X023905Y012910D01*
X001801Y012910D01*
X001993Y012718D01*
X002132Y012382D01*
X002132Y012018D01*
X001993Y011682D01*
X001736Y011424D01*
X001399Y011285D01*
X001035Y011285D01*
X000699Y011424D01*
X000507Y011616D01*
X000507Y001784D01*
X000699Y001976D01*
X001035Y002115D01*
X001399Y002115D01*
X001736Y001976D01*
X001993Y001718D01*
X002132Y001382D01*
X009200Y001382D01*
X009200Y001335D02*
X009540Y000995D01*
X010020Y000995D01*
X010280Y001255D01*
X010540Y000995D01*
X011020Y000995D01*
X011342Y001317D01*
X011665Y000995D01*
X012145Y000995D01*
X012485Y001335D01*
X012485Y001815D01*
X012145Y002155D01*
X011665Y002155D01*
X011342Y001833D01*
X011020Y002155D01*
X010540Y002155D01*
X010280Y001895D01*
X010020Y002155D01*
X009540Y002155D01*
X009200Y001815D01*
X009200Y001335D01*
X009251Y001283D02*
X002132Y001283D01*
X002132Y001185D02*
X009350Y001185D01*
X009448Y001086D02*
X002132Y001086D01*
X002132Y001018D02*
X002132Y001382D01*
X002092Y001480D02*
X009200Y001480D01*
X009200Y001579D02*
X002051Y001579D01*
X002010Y001677D02*
X009200Y001677D01*
X009200Y001776D02*
X001935Y001776D01*
X001837Y001874D02*
X009259Y001874D01*
X009358Y001973D02*
X001738Y001973D01*
X001504Y002071D02*
X009456Y002071D01*
X010104Y002071D02*
X010456Y002071D01*
X010358Y001973D02*
X010202Y001973D01*
X011104Y002071D02*
X011581Y002071D01*
X011483Y001973D02*
X011202Y001973D01*
X011301Y001874D02*
X011384Y001874D01*
X012229Y002071D02*
X020617Y002071D01*
X020617Y002129D02*
X020709Y002350D01*
X020878Y002519D01*
X021098Y002610D01*
X021337Y002610D01*
X021557Y002519D01*
X021717Y002358D01*
X021878Y002519D01*
X022098Y002610D01*
X022337Y002610D01*
X022557Y002519D01*
X022717Y002358D01*
X022878Y002519D01*
X023098Y002610D01*
X023337Y002610D01*
X023557Y002519D01*
X023726Y002350D01*
X023817Y002129D01*
X023817Y001271D01*
X023726Y001050D01*
X023557Y000881D01*
X023337Y000790D01*
X023098Y000790D01*
X022878Y000881D01*
X022717Y001041D01*
X022557Y000881D01*
X022337Y000790D01*
X022098Y000790D01*
X021878Y000881D01*
X021717Y001041D01*
X021557Y000881D01*
X021337Y000790D01*
X021098Y000790D01*
X020878Y000881D01*
X020709Y001050D01*
X020617Y001271D01*
X020617Y002129D01*
X020634Y002170D02*
X000507Y002170D01*
X000507Y002268D02*
X020675Y002268D01*
X020726Y002367D02*
X000507Y002367D01*
X000507Y002465D02*
X020824Y002465D01*
X020987Y002564D02*
X000507Y002564D01*
X000507Y002662D02*
X026427Y002662D01*
X026427Y002564D02*
X023448Y002564D01*
X023610Y002465D02*
X026427Y002465D01*
X026427Y002367D02*
X023709Y002367D01*
X023760Y002268D02*
X026427Y002268D01*
X026427Y002170D02*
X023801Y002170D01*
X023817Y002071D02*
X025430Y002071D01*
X025196Y001973D02*
X023817Y001973D01*
X023817Y001874D02*
X025098Y001874D01*
X024999Y001776D02*
X023817Y001776D01*
X023817Y001677D02*
X024925Y001677D01*
X024884Y001579D02*
X023817Y001579D01*
X023817Y001283D02*
X024802Y001283D01*
X024802Y001185D02*
X023782Y001185D01*
X023741Y001086D02*
X024802Y001086D01*
X024815Y000988D02*
X023664Y000988D01*
X023565Y000889D02*
X024856Y000889D01*
X024896Y000791D02*
X023339Y000791D01*
X023096Y000791D02*
X022339Y000791D01*
X022096Y000791D02*
X021339Y000791D01*
X021096Y000791D02*
X002038Y000791D01*
X001998Y000692D02*
X024937Y000692D01*
X025029Y000594D02*
X001905Y000594D01*
X001993Y000682D02*
X002132Y001018D01*
X002120Y000988D02*
X020771Y000988D01*
X020694Y001086D02*
X012237Y001086D01*
X012335Y001185D02*
X014673Y001185D01*
X014723Y001135D02*
X014875Y001135D01*
X014875Y001545D01*
X014935Y001545D01*
X014935Y001605D01*
X015345Y001605D01*
X015345Y001757D01*
X015087Y002015D01*
X014935Y002015D01*
X014935Y001605D01*
X014875Y001605D01*
X014875Y002015D01*
X014723Y002015D01*
X014465Y001757D01*
X014465Y001605D01*
X014875Y001605D01*
X014875Y001545D01*
X014465Y001545D01*
X014465Y001393D01*
X014723Y001135D01*
X014875Y001185D02*
X014935Y001185D01*
X014935Y001135D02*
X015087Y001135D01*
X015345Y001393D01*
X015345Y001545D01*
X014935Y001545D01*
X014935Y001135D01*
X014935Y001283D02*
X014875Y001283D01*
X014875Y001382D02*
X014935Y001382D01*
X014935Y001480D02*
X014875Y001480D01*
X014875Y001579D02*
X012485Y001579D01*
X012485Y001677D02*
X014465Y001677D01*
X014484Y001776D02*
X012485Y001776D01*
X012426Y001874D02*
X014582Y001874D01*
X014681Y001973D02*
X012327Y001973D01*
X012485Y001480D02*
X014465Y001480D01*
X014476Y001382D02*
X012485Y001382D01*
X012434Y001283D02*
X014574Y001283D01*
X014935Y001579D02*
X020617Y001579D01*
X020617Y001677D02*
X015345Y001677D01*
X015326Y001776D02*
X020617Y001776D01*
X020617Y001874D02*
X015228Y001874D01*
X015129Y001973D02*
X020617Y001973D01*
X020617Y001480D02*
X015345Y001480D01*
X015334Y001382D02*
X020617Y001382D01*
X020617Y001283D02*
X015236Y001283D01*
X015137Y001185D02*
X020653Y001185D01*
X020869Y000889D02*
X002079Y000889D01*
X001807Y000495D02*
X025128Y000495D01*
X022869Y000889D02*
X022565Y000889D01*
X022664Y000988D02*
X022771Y000988D01*
X021869Y000889D02*
X021565Y000889D01*
X021664Y000988D02*
X021771Y000988D01*
X021726Y002367D02*
X021709Y002367D01*
X021610Y002465D02*
X021824Y002465D01*
X021987Y002564D02*
X021448Y002564D01*
X020999Y003020D02*
X020436Y003020D01*
X020037Y003418D01*
X020037Y003982D01*
X020436Y004380D01*
X020999Y004380D01*
X021397Y003982D01*
X021397Y003418D01*
X020999Y003020D01*
X021036Y003056D02*
X023173Y003056D01*
X023242Y002988D02*
X023550Y002860D01*
X023885Y002860D01*
X024193Y002988D01*
X024430Y003224D01*
X024557Y003533D01*
X024557Y003867D01*
X024430Y004176D01*
X024193Y004412D01*
X023885Y004540D01*
X023550Y004540D01*
X023242Y004412D01*
X023005Y004176D01*
X022877Y003867D01*
X022877Y003533D01*
X023005Y003224D01*
X023242Y002988D01*
X023314Y002958D02*
X000507Y002958D01*
X000507Y003056D02*
X005133Y003056D01*
X005188Y003034D02*
X005482Y003034D01*
X005754Y003147D01*
X005962Y003355D01*
X006075Y003627D01*
X006075Y003921D01*
X005962Y004193D01*
X005754Y004401D01*
X005482Y004514D01*
X005188Y004514D01*
X004916Y004401D01*
X004707Y004193D01*
X004595Y003921D01*
X004595Y003627D01*
X004707Y003355D01*
X004916Y003147D01*
X005188Y003034D01*
X004907Y003155D02*
X002615Y003155D01*
X002571Y003137D02*
X002910Y003277D01*
X003170Y003537D01*
X003311Y003876D01*
X003311Y004244D01*
X003170Y004583D01*
X002910Y004843D01*
X002571Y004983D01*
X002204Y004983D01*
X002121Y004949D01*
X002032Y005163D01*
X001961Y005233D01*
X002032Y005304D01*
X002145Y005576D01*
X002145Y005777D01*
X002241Y005777D01*
X002580Y005917D01*
X002840Y006177D01*
X002981Y006516D01*
X002981Y006884D01*
X002840Y007223D01*
X002580Y007483D01*
X002241Y007623D01*
X002145Y007623D01*
X002145Y007851D01*
X002032Y008123D01*
X001961Y008193D01*
X002032Y008264D01*
X002111Y008455D01*
X002204Y008417D01*
X002571Y008417D01*
X002910Y008557D01*
X003170Y008817D01*
X003311Y009156D01*
X003311Y009524D01*
X003170Y009863D01*
X002910Y010123D01*
X002571Y010263D01*
X002204Y010263D01*
X001865Y010123D01*
X001605Y009863D01*
X001464Y009524D01*
X001464Y009423D01*
X001258Y009423D01*
X000986Y009311D01*
X000777Y009103D01*
X000665Y008831D01*
X000665Y008536D01*
X000777Y008264D01*
X000848Y008193D01*
X000777Y008123D01*
X000665Y007851D01*
X000665Y007556D01*
X000777Y007284D01*
X000986Y007076D01*
X001181Y006995D01*
X001134Y006884D01*
X001134Y006516D01*
X001171Y006428D01*
X000986Y006351D01*
X000777Y006143D01*
X000665Y005871D01*
X000665Y005576D01*
X000777Y005304D01*
X000848Y005233D01*
X000777Y005163D01*
X000665Y004891D01*
X000665Y004596D01*
X000777Y004324D01*
X000986Y004116D01*
X001258Y004003D01*
X001464Y004003D01*
X001464Y003876D01*
X001605Y003537D01*
X001865Y003277D01*
X002204Y003137D01*
X002571Y003137D01*
X002852Y003253D02*
X004809Y003253D01*
X004710Y003352D02*
X002985Y003352D01*
X003083Y003450D02*
X004668Y003450D01*
X004627Y003549D02*
X003175Y003549D01*
X003216Y003647D02*
X004595Y003647D01*
X004595Y003746D02*
X003257Y003746D01*
X003297Y003844D02*
X004595Y003844D01*
X004604Y003943D02*
X003311Y003943D01*
X003311Y004041D02*
X004645Y004041D01*
X004685Y004140D02*
X003311Y004140D01*
X003311Y004238D02*
X004753Y004238D01*
X004851Y004337D02*
X003272Y004337D01*
X003231Y004435D02*
X004998Y004435D01*
X004796Y004764D02*
X004301Y004764D01*
X003957Y005108D01*
X003753Y004904D01*
X003602Y004904D01*
X003602Y005323D01*
X003525Y005323D01*
X003107Y005323D01*
X003107Y005172D01*
X003375Y004904D01*
X003525Y004904D01*
X003525Y005323D01*
X003525Y005400D01*
X003107Y005400D01*
X003107Y005551D01*
X003232Y005676D01*
X002967Y005941D01*
X002967Y006436D01*
X003231Y006700D01*
X002967Y006964D01*
X002967Y007459D01*
X003133Y007625D01*
X002967Y007791D01*
X002967Y008286D01*
X003317Y008636D01*
X003811Y008636D01*
X004056Y008391D01*
X004301Y008636D01*
X004796Y008636D01*
X005145Y008286D01*
X005145Y007791D01*
X004796Y007441D01*
X004301Y007441D01*
X004056Y007686D01*
X004056Y007686D01*
X003995Y007625D01*
X004161Y007459D01*
X004161Y006964D01*
X003897Y006700D01*
X004161Y006436D01*
X004161Y005941D01*
X003896Y005676D01*
X003957Y005615D01*
X004301Y005959D01*
X004796Y005959D01*
X005145Y005609D01*
X005145Y005114D01*
X004796Y004764D01*
X004861Y004829D02*
X005737Y004829D01*
X005731Y004796D02*
X006281Y004796D01*
X006281Y004696D01*
X006381Y004696D01*
X006381Y004147D01*
X006471Y004161D01*
X006561Y004190D01*
X006645Y004233D01*
X006722Y004289D01*
X006788Y004356D01*
X006844Y004432D01*
X006887Y004516D01*
X006916Y004606D01*
X006930Y004696D01*
X006381Y004696D01*
X006381Y004796D01*
X006930Y004796D01*
X006916Y004887D01*
X006887Y004977D01*
X006844Y005061D01*
X006788Y005137D01*
X006722Y005204D01*
X006645Y005260D01*
X006561Y005302D01*
X006471Y005332D01*
X006381Y005346D01*
X006381Y004796D01*
X006281Y004796D01*
X006281Y005346D01*
X006190Y005332D01*
X006101Y005302D01*
X006016Y005260D01*
X005940Y005204D01*
X005873Y005137D01*
X005818Y005061D01*
X005775Y004977D01*
X005746Y004887D01*
X005731Y004796D01*
X005731Y004696D02*
X005746Y004606D01*
X005775Y004516D01*
X005818Y004432D01*
X005873Y004356D01*
X005940Y004289D01*
X006016Y004233D01*
X006101Y004190D01*
X006190Y004161D01*
X006281Y004147D01*
X006281Y004696D01*
X005731Y004696D01*
X005741Y004632D02*
X003120Y004632D01*
X003190Y004534D02*
X005769Y004534D01*
X005816Y004435D02*
X005671Y004435D01*
X005818Y004337D02*
X005892Y004337D01*
X005917Y004238D02*
X006009Y004238D01*
X005984Y004140D02*
X007008Y004140D01*
X007008Y004180D02*
X007089Y004378D01*
X007241Y004529D01*
X007439Y004611D01*
X007653Y004611D01*
X007850Y004529D01*
X008002Y004378D01*
X008084Y004180D01*
X008084Y003470D01*
X008002Y003272D01*
X007850Y003121D01*
X007653Y003039D01*
X007439Y003039D01*
X007241Y003121D01*
X007089Y003272D01*
X007008Y003470D01*
X007008Y004180D01*
X007032Y004238D02*
X006652Y004238D01*
X006770Y004337D02*
X007073Y004337D01*
X007147Y004435D02*
X006846Y004435D01*
X006893Y004534D02*
X007252Y004534D01*
X006920Y004632D02*
X010127Y004632D01*
X010028Y004534D02*
X009808Y004534D01*
X009819Y004529D02*
X009621Y004611D01*
X009407Y004611D01*
X009209Y004529D01*
X009058Y004378D01*
X008976Y004180D01*
X008976Y003470D01*
X009058Y003272D01*
X009209Y003121D01*
X009407Y003039D01*
X009621Y003039D01*
X009819Y003121D01*
X009970Y003272D01*
X010052Y003470D01*
X010052Y003512D01*
X011127Y004587D01*
X011456Y004257D01*
X011978Y004257D01*
X012217Y004497D01*
X012456Y004257D01*
X012978Y004257D01*
X013217Y004497D01*
X013456Y004257D01*
X013978Y004257D01*
X014316Y004596D01*
X014514Y004397D01*
X014687Y004397D01*
X014687Y004857D01*
X014747Y004857D01*
X014747Y004397D01*
X014920Y004397D01*
X015207Y004684D01*
X015207Y004857D01*
X014747Y004857D01*
X014747Y004917D01*
X015207Y004917D01*
X015207Y005090D01*
X014920Y005377D01*
X014747Y005377D01*
X014747Y004917D01*
X014687Y004917D01*
X014687Y005377D01*
X014514Y005377D01*
X014316Y005179D01*
X013978Y005517D01*
X013456Y005517D01*
X013217Y005278D01*
X012978Y005517D01*
X012456Y005517D01*
X012217Y005278D01*
X012018Y005478D01*
X013798Y007257D01*
X013978Y007257D01*
X014217Y007497D01*
X014456Y007257D01*
X014978Y007257D01*
X015347Y007627D01*
X015347Y008148D01*
X014978Y008517D01*
X014456Y008517D01*
X014217Y008278D01*
X013978Y008517D01*
X013456Y008517D01*
X013217Y008278D01*
X012978Y008517D01*
X012456Y008517D01*
X012217Y008278D01*
X011978Y008517D01*
X011456Y008517D01*
X011088Y008149D01*
X010958Y008280D01*
X010477Y008280D01*
X010137Y007940D01*
X010137Y007460D01*
X010477Y007120D01*
X010515Y007120D01*
X010277Y006882D01*
X010277Y006730D01*
X010687Y006730D01*
X010687Y006670D01*
X010277Y006670D01*
X010277Y006518D01*
X010535Y006260D01*
X010687Y006260D01*
X010687Y006670D01*
X010747Y006670D01*
X010747Y006260D01*
X010900Y006260D01*
X011157Y006518D01*
X011157Y006670D01*
X010747Y006670D01*
X010747Y006730D01*
X011157Y006730D01*
X011157Y006882D01*
X010920Y007120D01*
X010958Y007120D01*
X011276Y007438D01*
X011456Y007257D01*
X011978Y007257D01*
X012217Y007497D01*
X012456Y007257D01*
X012752Y007257D01*
X009921Y004427D01*
X009819Y004529D01*
X009913Y004435D02*
X009930Y004435D01*
X010225Y004731D02*
X006381Y004731D01*
X006381Y004829D02*
X006281Y004829D01*
X006281Y004731D02*
X003022Y004731D01*
X002923Y004829D02*
X004236Y004829D01*
X004137Y004928D02*
X003777Y004928D01*
X003876Y005026D02*
X004039Y005026D01*
X003602Y005026D02*
X003525Y005026D01*
X003525Y004928D02*
X003602Y004928D01*
X003602Y005125D02*
X003525Y005125D01*
X003525Y005223D02*
X003602Y005223D01*
X003602Y005322D02*
X003525Y005322D01*
X003107Y005322D02*
X002039Y005322D01*
X002080Y005420D02*
X003107Y005420D01*
X003107Y005519D02*
X002121Y005519D01*
X002145Y005617D02*
X003173Y005617D01*
X003192Y005716D02*
X002145Y005716D01*
X002332Y005814D02*
X003093Y005814D01*
X002995Y005913D02*
X002570Y005913D01*
X002674Y006011D02*
X002967Y006011D01*
X002967Y006110D02*
X002773Y006110D01*
X002853Y006208D02*
X002967Y006208D01*
X002967Y006307D02*
X002894Y006307D01*
X002935Y006405D02*
X002967Y006405D01*
X002975Y006504D02*
X003035Y006504D01*
X002981Y006602D02*
X003134Y006602D01*
X003230Y006701D02*
X002981Y006701D01*
X002981Y006799D02*
X003132Y006799D01*
X003033Y006898D02*
X002975Y006898D01*
X002967Y006996D02*
X002934Y006996D01*
X002967Y007095D02*
X002893Y007095D01*
X002852Y007193D02*
X002967Y007193D01*
X002967Y007292D02*
X002771Y007292D01*
X002672Y007390D02*
X002967Y007390D01*
X002997Y007489D02*
X002565Y007489D01*
X002327Y007587D02*
X003095Y007587D01*
X003072Y007686D02*
X002145Y007686D01*
X002145Y007784D02*
X002973Y007784D01*
X002967Y007883D02*
X002131Y007883D01*
X002091Y007981D02*
X002967Y007981D01*
X002967Y008080D02*
X002050Y008080D01*
X001976Y008178D02*
X002967Y008178D01*
X002967Y008277D02*
X002037Y008277D01*
X002078Y008375D02*
X003056Y008375D01*
X003155Y008474D02*
X002709Y008474D01*
X002925Y008572D02*
X003253Y008572D01*
X003122Y008769D02*
X005587Y008769D01*
X005587Y008831D02*
X005587Y008536D01*
X005700Y008264D01*
X005908Y008056D01*
X006180Y007943D01*
X006474Y007943D01*
X006746Y008056D01*
X006954Y008264D01*
X007067Y008536D01*
X007067Y008831D01*
X006954Y009103D01*
X006746Y009311D01*
X006474Y009423D01*
X006180Y009423D01*
X005997Y009348D01*
X006075Y009536D01*
X006075Y009831D01*
X005962Y010103D01*
X005754Y010311D01*
X005482Y010423D01*
X005188Y010423D01*
X004916Y010311D01*
X004707Y010103D01*
X004595Y009831D01*
X004595Y009536D01*
X004707Y009264D01*
X004916Y009056D01*
X005188Y008943D01*
X005482Y008943D01*
X005665Y009019D01*
X005587Y008831D01*
X005602Y008868D02*
X003191Y008868D01*
X003232Y008966D02*
X005132Y008966D01*
X004907Y009065D02*
X003273Y009065D01*
X003311Y009163D02*
X004808Y009163D01*
X004710Y009262D02*
X003311Y009262D01*
X003311Y009360D02*
X004668Y009360D01*
X004627Y009459D02*
X003311Y009459D01*
X003296Y009557D02*
X004595Y009557D01*
X004595Y009656D02*
X003256Y009656D01*
X003215Y009754D02*
X004595Y009754D01*
X004604Y009853D02*
X003174Y009853D01*
X003081Y009951D02*
X004645Y009951D01*
X004686Y010050D02*
X002983Y010050D01*
X002848Y010148D02*
X004753Y010148D01*
X004852Y010247D02*
X002610Y010247D01*
X002165Y010247D02*
X000507Y010247D01*
X000507Y010345D02*
X004999Y010345D01*
X005670Y010345D02*
X008252Y010345D01*
X008350Y010247D02*
X005818Y010247D01*
X005916Y010148D02*
X008449Y010148D01*
X008477Y010120D02*
X008958Y010120D01*
X009297Y010460D01*
X009297Y010940D01*
X008958Y011280D01*
X008920Y011280D01*
X009157Y011518D01*
X009157Y011670D01*
X008747Y011670D01*
X008747Y011730D01*
X008687Y011730D01*
X008687Y011670D01*
X008277Y011670D01*
X008277Y011518D01*
X008515Y011280D01*
X008477Y011280D01*
X008137Y010940D01*
X008137Y010460D01*
X008477Y010120D01*
X008153Y010444D02*
X000507Y010444D01*
X000507Y010542D02*
X008137Y010542D01*
X008137Y010641D02*
X000507Y010641D01*
X000507Y010739D02*
X008137Y010739D01*
X008137Y010838D02*
X000507Y010838D01*
X000507Y010936D02*
X008137Y010936D01*
X008232Y011035D02*
X000507Y011035D01*
X000507Y011133D02*
X003464Y011133D01*
X003477Y011120D02*
X003958Y011120D01*
X004297Y011460D01*
X004297Y011498D01*
X004535Y011260D01*
X004687Y011260D01*
X004687Y011670D01*
X004747Y011670D01*
X004747Y011260D01*
X004900Y011260D01*
X005157Y011518D01*
X005157Y011670D01*
X004747Y011670D01*
X004747Y011730D01*
X004687Y011730D01*
X004687Y012140D01*
X004535Y012140D01*
X004297Y011902D01*
X004297Y011940D01*
X003958Y012280D01*
X003477Y012280D01*
X003137Y011940D01*
X003137Y011460D01*
X003477Y011120D01*
X003365Y011232D02*
X000507Y011232D01*
X000507Y011330D02*
X000926Y011330D01*
X000694Y011429D02*
X000507Y011429D01*
X000507Y011527D02*
X000596Y011527D01*
X001509Y011330D02*
X003267Y011330D01*
X003168Y011429D02*
X001740Y011429D01*
X001839Y011527D02*
X003137Y011527D01*
X003137Y011626D02*
X001937Y011626D01*
X002011Y011724D02*
X003137Y011724D01*
X003137Y011823D02*
X002052Y011823D01*
X002092Y011921D02*
X003137Y011921D01*
X003217Y012020D02*
X002132Y012020D01*
X002132Y012118D02*
X003316Y012118D01*
X003414Y012217D02*
X002132Y012217D01*
X002132Y012315D02*
X010637Y012315D01*
X010637Y012217D02*
X004021Y012217D01*
X004119Y012118D02*
X004514Y012118D01*
X004415Y012020D02*
X004218Y012020D01*
X004297Y011921D02*
X004317Y011921D01*
X004687Y011921D02*
X004747Y011921D01*
X004747Y011823D02*
X004687Y011823D01*
X004747Y011730D02*
X004747Y012140D01*
X004900Y012140D01*
X005157Y011882D01*
X005157Y011730D01*
X004747Y011730D01*
X004747Y011724D02*
X008687Y011724D01*
X008687Y011730D02*
X008277Y011730D01*
X008277Y011882D01*
X008535Y012140D01*
X008687Y012140D01*
X008687Y011730D01*
X008747Y011730D02*
X008747Y012140D01*
X008900Y012140D01*
X009157Y011882D01*
X009157Y011730D01*
X008747Y011730D01*
X008747Y011724D02*
X010873Y011724D01*
X010971Y011626D02*
X009157Y011626D01*
X009157Y011527D02*
X020022Y011527D01*
X020117Y011623D02*
X019758Y011264D01*
X019654Y011160D01*
X019597Y011024D01*
X019597Y008626D01*
X019654Y008490D01*
X020100Y008044D01*
X020037Y007982D01*
X020037Y007418D01*
X020436Y007020D01*
X020999Y007020D01*
X021397Y007418D01*
X021397Y007982D01*
X020999Y008380D01*
X020811Y008380D01*
X020337Y008853D01*
X020337Y009118D01*
X020436Y009020D01*
X020999Y009020D01*
X021397Y009418D01*
X021397Y009982D01*
X020999Y010380D01*
X020436Y010380D01*
X020337Y010282D01*
X020337Y010797D01*
X020409Y010868D01*
X020598Y010790D01*
X020837Y010790D01*
X021057Y010881D01*
X021217Y011041D01*
X021378Y010881D01*
X021598Y010790D01*
X021837Y010790D01*
X022057Y010881D01*
X022217Y011041D01*
X022378Y010881D01*
X022598Y010790D01*
X022837Y010790D01*
X023057Y010881D01*
X023226Y011050D01*
X023317Y011271D01*
X023317Y012129D01*
X023226Y012350D01*
X023057Y012519D01*
X022837Y012610D01*
X022598Y012610D01*
X022378Y012519D01*
X022217Y012358D01*
X022057Y012519D01*
X021837Y012610D01*
X021598Y012610D01*
X021378Y012519D01*
X021217Y012358D01*
X021057Y012519D01*
X020837Y012610D01*
X020598Y012610D01*
X020378Y012519D01*
X020209Y012350D01*
X020117Y012129D01*
X020117Y011623D01*
X020117Y011626D02*
X014464Y011626D01*
X014458Y011620D02*
X014797Y011960D01*
X014797Y012440D01*
X014458Y012780D01*
X013977Y012780D01*
X013637Y012440D01*
X013637Y011960D01*
X013977Y011620D01*
X014458Y011620D01*
X014562Y011724D02*
X020117Y011724D01*
X020117Y011823D02*
X014661Y011823D01*
X014759Y011921D02*
X020117Y011921D01*
X020117Y012020D02*
X014797Y012020D01*
X014797Y012118D02*
X020117Y012118D01*
X020154Y012217D02*
X014797Y012217D01*
X014797Y012315D02*
X020195Y012315D01*
X020273Y012414D02*
X014797Y012414D01*
X014725Y012512D02*
X020371Y012512D01*
X021063Y012512D02*
X021371Y012512D01*
X021273Y012414D02*
X021162Y012414D01*
X022063Y012512D02*
X022371Y012512D01*
X022273Y012414D02*
X022162Y012414D01*
X023063Y012512D02*
X024087Y012512D01*
X024147Y012512D02*
X024857Y012512D01*
X024816Y012414D02*
X024557Y012414D01*
X024555Y012315D02*
X024802Y012315D01*
X024802Y012217D02*
X024457Y012217D01*
X024358Y012118D02*
X024802Y012118D01*
X024802Y012020D02*
X024418Y012020D01*
X024516Y011921D02*
X024842Y011921D01*
X024883Y011823D02*
X024615Y011823D01*
X024697Y011724D02*
X024924Y011724D01*
X024997Y011626D02*
X024697Y011626D01*
X024697Y011527D02*
X025096Y011527D01*
X025194Y011429D02*
X024697Y011429D01*
X024697Y011330D02*
X025426Y011330D01*
X026009Y011330D02*
X026427Y011330D01*
X026427Y011232D02*
X024670Y011232D01*
X024571Y011133D02*
X026427Y011133D01*
X026427Y011035D02*
X024473Y011035D01*
X024374Y010936D02*
X026427Y010936D01*
X026427Y010838D02*
X022953Y010838D01*
X023112Y010936D02*
X023861Y010936D01*
X023762Y011035D02*
X023211Y011035D01*
X023261Y011133D02*
X023664Y011133D01*
X023565Y011232D02*
X023301Y011232D01*
X023317Y011330D02*
X023537Y011330D01*
X023537Y011429D02*
X023317Y011429D01*
X023317Y011527D02*
X023537Y011527D01*
X023537Y011626D02*
X023317Y011626D01*
X023317Y011724D02*
X023537Y011724D01*
X023620Y011823D02*
X023317Y011823D01*
X023317Y011921D02*
X023719Y011921D01*
X023817Y012020D02*
X023317Y012020D01*
X023317Y012118D02*
X023877Y012118D01*
X023778Y012217D02*
X023281Y012217D01*
X023240Y012315D02*
X023680Y012315D01*
X023677Y012414D02*
X023162Y012414D01*
X023677Y012611D02*
X014627Y012611D01*
X014528Y012709D02*
X023705Y012709D01*
X023803Y012808D02*
X001903Y012808D01*
X001997Y012709D02*
X010907Y012709D01*
X010977Y012780D02*
X010637Y012440D01*
X010637Y011960D01*
X010977Y011620D01*
X011458Y011620D01*
X011797Y011960D01*
X011797Y012440D01*
X011458Y012780D01*
X010977Y012780D01*
X010808Y012611D02*
X002038Y012611D01*
X002078Y012512D02*
X010710Y012512D01*
X010637Y012414D02*
X002119Y012414D01*
X001805Y012906D02*
X023902Y012906D01*
X024333Y012906D02*
X025130Y012906D01*
X025031Y012808D02*
X024432Y012808D01*
X024530Y012709D02*
X024938Y012709D01*
X024897Y012611D02*
X024557Y012611D01*
X026339Y011527D02*
X026427Y011527D01*
X026427Y011429D02*
X026240Y011429D01*
X026427Y010739D02*
X020337Y010739D01*
X020337Y010641D02*
X026427Y010641D01*
X026427Y010542D02*
X020337Y010542D01*
X020337Y010444D02*
X023319Y010444D01*
X023242Y010412D02*
X023005Y010176D01*
X022877Y009867D01*
X022877Y009533D01*
X023005Y009224D01*
X023242Y008988D01*
X023550Y008860D01*
X023885Y008860D01*
X024193Y008988D01*
X024430Y009224D01*
X024557Y009533D01*
X024557Y009867D01*
X024430Y010176D01*
X024193Y010412D01*
X023885Y010540D01*
X023550Y010540D01*
X023242Y010412D01*
X023175Y010345D02*
X021034Y010345D01*
X021132Y010247D02*
X023077Y010247D01*
X022994Y010148D02*
X021231Y010148D01*
X021329Y010050D02*
X022953Y010050D01*
X022912Y009951D02*
X021397Y009951D01*
X021397Y009853D02*
X022877Y009853D01*
X022877Y009754D02*
X021397Y009754D01*
X021397Y009656D02*
X022877Y009656D01*
X022877Y009557D02*
X021397Y009557D01*
X021397Y009459D02*
X022908Y009459D01*
X022949Y009360D02*
X022019Y009360D01*
X021999Y009380D02*
X021436Y009380D01*
X021037Y008982D01*
X021037Y008418D01*
X021436Y008020D01*
X021999Y008020D01*
X022397Y008418D01*
X022397Y008982D01*
X021999Y009380D01*
X022117Y009262D02*
X022990Y009262D01*
X023066Y009163D02*
X022216Y009163D01*
X022314Y009065D02*
X023164Y009065D01*
X023293Y008966D02*
X022397Y008966D01*
X022397Y008868D02*
X023531Y008868D01*
X023904Y008868D02*
X026427Y008868D01*
X026427Y008966D02*
X024142Y008966D01*
X024270Y009065D02*
X026427Y009065D01*
X026427Y009163D02*
X024369Y009163D01*
X024445Y009262D02*
X026427Y009262D01*
X026427Y009360D02*
X024486Y009360D01*
X024527Y009459D02*
X026427Y009459D01*
X026427Y009557D02*
X024557Y009557D01*
X024557Y009656D02*
X026427Y009656D01*
X026427Y009754D02*
X024557Y009754D01*
X024557Y009853D02*
X026427Y009853D01*
X026427Y009951D02*
X024522Y009951D01*
X024482Y010050D02*
X026427Y010050D01*
X026427Y010148D02*
X024441Y010148D01*
X024358Y010247D02*
X026427Y010247D01*
X026427Y010345D02*
X024260Y010345D01*
X024116Y010444D02*
X026427Y010444D01*
X026427Y008769D02*
X022397Y008769D01*
X022397Y008671D02*
X026427Y008671D01*
X026427Y008572D02*
X022397Y008572D01*
X022397Y008474D02*
X026427Y008474D01*
X026427Y008375D02*
X025864Y008375D01*
X025853Y008380D02*
X025582Y008380D01*
X025332Y008276D01*
X025141Y008085D01*
X025037Y007835D01*
X025037Y007565D01*
X025141Y007315D01*
X025332Y007123D01*
X025582Y007020D01*
X025853Y007020D01*
X026103Y007123D01*
X026294Y007315D01*
X026397Y007565D01*
X026397Y007835D01*
X026294Y008085D01*
X026103Y008276D01*
X025853Y008380D01*
X026101Y008277D02*
X026427Y008277D01*
X026427Y008178D02*
X026201Y008178D01*
X026296Y008080D02*
X026427Y008080D01*
X026427Y007981D02*
X026337Y007981D01*
X026378Y007883D02*
X026427Y007883D01*
X026427Y007784D02*
X026397Y007784D01*
X026397Y007686D02*
X026427Y007686D01*
X026427Y007587D02*
X026397Y007587D01*
X026366Y007489D02*
X026427Y007489D01*
X026427Y007390D02*
X026325Y007390D01*
X026271Y007292D02*
X026427Y007292D01*
X026427Y007193D02*
X026173Y007193D01*
X026034Y007095D02*
X026427Y007095D01*
X026427Y006996D02*
X022383Y006996D01*
X022397Y006982D02*
X021999Y007380D01*
X021436Y007380D01*
X021037Y006982D01*
X021037Y006418D01*
X021436Y006020D01*
X021999Y006020D01*
X022397Y006418D01*
X022397Y006982D01*
X022397Y006898D02*
X026427Y006898D01*
X026427Y006799D02*
X022397Y006799D01*
X022397Y006701D02*
X026427Y006701D01*
X026427Y006602D02*
X022397Y006602D01*
X022397Y006504D02*
X026427Y006504D01*
X026427Y006405D02*
X022385Y006405D01*
X022286Y006307D02*
X025406Y006307D01*
X025332Y006276D02*
X025141Y006085D01*
X025037Y005835D01*
X025037Y005565D01*
X025141Y005315D01*
X025332Y005123D01*
X025582Y005020D01*
X025853Y005020D01*
X026103Y005123D01*
X026294Y005315D01*
X026397Y005565D01*
X026397Y005835D01*
X026294Y006085D01*
X026103Y006276D01*
X025853Y006380D01*
X025582Y006380D01*
X025332Y006276D01*
X025264Y006208D02*
X022188Y006208D01*
X022089Y006110D02*
X025166Y006110D01*
X025110Y006011D02*
X021368Y006011D01*
X021397Y005982D02*
X020999Y006380D01*
X020436Y006380D01*
X020037Y005982D01*
X020037Y005418D01*
X020436Y005020D01*
X020999Y005020D01*
X021397Y005418D01*
X021397Y005982D01*
X021397Y005913D02*
X025070Y005913D01*
X025037Y005814D02*
X021397Y005814D01*
X021397Y005716D02*
X025037Y005716D01*
X025037Y005617D02*
X021397Y005617D01*
X021397Y005519D02*
X025056Y005519D01*
X025097Y005420D02*
X021397Y005420D01*
X021301Y005322D02*
X025138Y005322D01*
X025232Y005223D02*
X021958Y005223D01*
X021941Y005240D02*
X021767Y005240D01*
X021767Y004750D01*
X021667Y004750D01*
X021667Y004650D01*
X021177Y004650D01*
X021177Y004476D01*
X021494Y004160D01*
X021667Y004160D01*
X021667Y004650D01*
X021767Y004650D01*
X021767Y004160D01*
X021941Y004160D01*
X022257Y004476D01*
X022257Y004650D01*
X021767Y004650D01*
X021767Y004750D01*
X022257Y004750D01*
X022257Y004924D01*
X021941Y005240D01*
X022056Y005125D02*
X025331Y005125D01*
X025566Y005026D02*
X022155Y005026D01*
X022253Y004928D02*
X026427Y004928D01*
X026427Y005026D02*
X025868Y005026D01*
X026104Y005125D02*
X026427Y005125D01*
X026427Y005223D02*
X026203Y005223D01*
X026297Y005322D02*
X026427Y005322D01*
X026427Y005420D02*
X026338Y005420D01*
X026378Y005519D02*
X026427Y005519D01*
X026427Y005617D02*
X026397Y005617D01*
X026397Y005716D02*
X026427Y005716D01*
X026427Y005814D02*
X026397Y005814D01*
X026427Y005913D02*
X026365Y005913D01*
X026324Y006011D02*
X026427Y006011D01*
X026427Y006110D02*
X026269Y006110D01*
X026171Y006208D02*
X026427Y006208D01*
X026427Y006307D02*
X026029Y006307D01*
X025401Y007095D02*
X022284Y007095D01*
X022186Y007193D02*
X025262Y007193D01*
X025164Y007292D02*
X022087Y007292D01*
X021397Y007489D02*
X025069Y007489D01*
X025037Y007587D02*
X021397Y007587D01*
X021397Y007686D02*
X025037Y007686D01*
X025037Y007784D02*
X021397Y007784D01*
X021397Y007883D02*
X025057Y007883D01*
X025098Y007981D02*
X021397Y007981D01*
X021376Y008080D02*
X021299Y008080D01*
X021277Y008178D02*
X021201Y008178D01*
X021179Y008277D02*
X021102Y008277D01*
X021080Y008375D02*
X021004Y008375D01*
X021037Y008474D02*
X020717Y008474D01*
X020618Y008572D02*
X021037Y008572D01*
X021037Y008671D02*
X020520Y008671D01*
X020421Y008769D02*
X021037Y008769D01*
X021037Y008868D02*
X020337Y008868D01*
X020337Y008966D02*
X021037Y008966D01*
X021044Y009065D02*
X021121Y009065D01*
X021143Y009163D02*
X021219Y009163D01*
X021241Y009262D02*
X021318Y009262D01*
X021340Y009360D02*
X021416Y009360D01*
X020391Y009065D02*
X020337Y009065D01*
X019597Y009065D02*
X014797Y009065D01*
X014797Y009163D02*
X019597Y009163D01*
X019597Y009262D02*
X014797Y009262D01*
X014797Y009360D02*
X019597Y009360D01*
X019597Y009459D02*
X014779Y009459D01*
X014797Y009440D02*
X014458Y009780D01*
X013977Y009780D01*
X013637Y009440D01*
X013637Y008960D01*
X013977Y008620D01*
X014458Y008620D01*
X014797Y008960D01*
X014797Y009440D01*
X014680Y009557D02*
X019597Y009557D01*
X019597Y009656D02*
X014582Y009656D01*
X014483Y009754D02*
X019597Y009754D01*
X019597Y009853D02*
X006065Y009853D01*
X006075Y009754D02*
X010952Y009754D01*
X010977Y009780D02*
X010637Y009440D01*
X010637Y008960D01*
X010977Y008620D01*
X011458Y008620D01*
X011797Y008960D01*
X011797Y009440D01*
X011458Y009780D01*
X010977Y009780D01*
X010853Y009656D02*
X006075Y009656D01*
X006075Y009557D02*
X010755Y009557D01*
X010656Y009459D02*
X006043Y009459D01*
X006028Y009360D02*
X006002Y009360D01*
X006626Y009360D02*
X010637Y009360D01*
X010637Y009262D02*
X008628Y009262D01*
X008684Y009239D02*
X008470Y009327D01*
X008240Y009327D01*
X008026Y009239D01*
X007863Y009076D01*
X007775Y008863D01*
X007775Y008632D01*
X007863Y008419D01*
X008026Y008256D01*
X008037Y008252D01*
X007915Y008130D01*
X007915Y007977D01*
X008325Y007977D01*
X008325Y007917D01*
X008385Y007917D01*
X008385Y007507D01*
X008537Y007507D01*
X008795Y007765D01*
X008795Y007917D01*
X008385Y007917D01*
X008385Y007977D01*
X008795Y007977D01*
X008795Y008130D01*
X008673Y008252D01*
X008684Y008256D01*
X008847Y008419D01*
X008935Y008632D01*
X008935Y008863D01*
X008847Y009076D01*
X008684Y009239D01*
X008759Y009163D02*
X010637Y009163D01*
X010637Y009065D02*
X008851Y009065D01*
X008892Y008966D02*
X010637Y008966D01*
X010729Y008868D02*
X008933Y008868D01*
X008935Y008769D02*
X010828Y008769D01*
X010926Y008671D02*
X008935Y008671D01*
X008910Y008572D02*
X019620Y008572D01*
X019597Y008671D02*
X014509Y008671D01*
X014607Y008769D02*
X019597Y008769D01*
X019597Y008868D02*
X014706Y008868D01*
X014797Y008966D02*
X019597Y008966D01*
X019670Y008474D02*
X015022Y008474D01*
X015120Y008375D02*
X019769Y008375D01*
X019867Y008277D02*
X018130Y008277D01*
X018123Y008280D02*
X017312Y008280D01*
X017099Y008192D01*
X016936Y008029D01*
X016847Y007815D01*
X016847Y007585D01*
X016936Y007371D01*
X017099Y007208D01*
X017119Y007200D01*
X017099Y007192D01*
X016936Y007029D01*
X016847Y006815D01*
X016847Y006585D01*
X016936Y006371D01*
X017099Y006208D01*
X017312Y006120D01*
X018123Y006120D01*
X018336Y006208D01*
X018499Y006371D01*
X018587Y006585D01*
X018587Y006815D01*
X018499Y007029D01*
X018336Y007192D01*
X018316Y007200D01*
X018336Y007208D01*
X018499Y007371D01*
X018587Y007585D01*
X018587Y007815D01*
X018499Y008029D01*
X018336Y008192D01*
X018123Y008280D01*
X018349Y008178D02*
X019966Y008178D01*
X020064Y008080D02*
X018448Y008080D01*
X018519Y007981D02*
X020037Y007981D01*
X020037Y007883D02*
X018559Y007883D01*
X018587Y007784D02*
X020037Y007784D01*
X020037Y007686D02*
X018587Y007686D01*
X018587Y007587D02*
X020037Y007587D01*
X020037Y007489D02*
X018548Y007489D01*
X018507Y007390D02*
X020065Y007390D01*
X019999Y007380D02*
X019436Y007380D01*
X019037Y006982D01*
X019037Y006418D01*
X019436Y006020D01*
X019999Y006020D01*
X020397Y006418D01*
X020397Y006982D01*
X019999Y007380D01*
X020087Y007292D02*
X020164Y007292D01*
X020186Y007193D02*
X020262Y007193D01*
X020284Y007095D02*
X020361Y007095D01*
X020383Y006996D02*
X021052Y006996D01*
X021037Y006898D02*
X020397Y006898D01*
X020397Y006799D02*
X021037Y006799D01*
X021037Y006701D02*
X020397Y006701D01*
X020397Y006602D02*
X021037Y006602D01*
X021037Y006504D02*
X020397Y006504D01*
X020385Y006405D02*
X021050Y006405D01*
X021072Y006307D02*
X021149Y006307D01*
X021171Y006208D02*
X021247Y006208D01*
X021269Y006110D02*
X021346Y006110D01*
X020363Y006307D02*
X020286Y006307D01*
X020264Y006208D02*
X020188Y006208D01*
X020166Y006110D02*
X020089Y006110D01*
X020067Y006011D02*
X012552Y006011D01*
X012454Y005913D02*
X020037Y005913D01*
X020037Y005814D02*
X012355Y005814D01*
X012257Y005716D02*
X020037Y005716D01*
X020037Y005617D02*
X012158Y005617D01*
X012060Y005519D02*
X020037Y005519D01*
X020037Y005420D02*
X014075Y005420D01*
X014174Y005322D02*
X014459Y005322D01*
X014360Y005223D02*
X014272Y005223D01*
X014687Y005223D02*
X014747Y005223D01*
X014747Y005125D02*
X014687Y005125D01*
X014687Y005026D02*
X014747Y005026D01*
X014747Y004928D02*
X014687Y004928D01*
X014687Y004829D02*
X014747Y004829D01*
X014747Y004731D02*
X014687Y004731D01*
X014687Y004632D02*
X014747Y004632D01*
X014747Y004534D02*
X014687Y004534D01*
X014687Y004435D02*
X014747Y004435D01*
X014958Y004435D02*
X016909Y004435D01*
X016936Y004371D02*
X016847Y004585D01*
X016847Y004815D01*
X016936Y005029D01*
X017099Y005192D01*
X017312Y005280D01*
X018123Y005280D01*
X018336Y005192D01*
X018499Y005029D01*
X018587Y004815D01*
X018587Y004585D01*
X018499Y004371D01*
X018336Y004208D01*
X018316Y004200D01*
X018336Y004192D01*
X018499Y004029D01*
X018587Y003815D01*
X018587Y003585D01*
X018499Y003371D01*
X018336Y003208D01*
X018123Y003120D01*
X017312Y003120D01*
X017099Y003208D01*
X016936Y003371D01*
X016847Y003585D01*
X016847Y003815D01*
X016936Y004029D01*
X017099Y004192D01*
X017119Y004200D01*
X017099Y004208D01*
X016936Y004371D01*
X016970Y004337D02*
X014058Y004337D01*
X014156Y004435D02*
X014476Y004435D01*
X014378Y004534D02*
X014255Y004534D01*
X015057Y004534D02*
X016868Y004534D01*
X016847Y004632D02*
X015155Y004632D01*
X015207Y004731D02*
X016847Y004731D01*
X016853Y004829D02*
X015207Y004829D01*
X015207Y004928D02*
X016894Y004928D01*
X016935Y005026D02*
X015207Y005026D01*
X015173Y005125D02*
X017032Y005125D01*
X017176Y005223D02*
X015074Y005223D01*
X014976Y005322D02*
X020134Y005322D01*
X020232Y005223D02*
X018259Y005223D01*
X018403Y005125D02*
X020331Y005125D01*
X020429Y005026D02*
X018500Y005026D01*
X018541Y004928D02*
X021182Y004928D01*
X021177Y004924D02*
X021177Y004750D01*
X021667Y004750D01*
X021667Y005240D01*
X021494Y005240D01*
X021177Y004924D01*
X021177Y004829D02*
X018582Y004829D01*
X018587Y004731D02*
X021667Y004731D01*
X021667Y004829D02*
X021767Y004829D01*
X021767Y004731D02*
X026427Y004731D01*
X026427Y004829D02*
X022257Y004829D01*
X021767Y004928D02*
X021667Y004928D01*
X021667Y005026D02*
X021767Y005026D01*
X021767Y005125D02*
X021667Y005125D01*
X021667Y005223D02*
X021767Y005223D01*
X021477Y005223D02*
X021203Y005223D01*
X021104Y005125D02*
X021379Y005125D01*
X021280Y005026D02*
X021006Y005026D01*
X021177Y004632D02*
X018587Y004632D01*
X018566Y004534D02*
X021177Y004534D01*
X021218Y004435D02*
X018526Y004435D01*
X018465Y004337D02*
X020393Y004337D01*
X020294Y004238D02*
X018366Y004238D01*
X018388Y004140D02*
X020196Y004140D01*
X020097Y004041D02*
X018486Y004041D01*
X018535Y003943D02*
X020037Y003943D01*
X020037Y003844D02*
X018575Y003844D01*
X018587Y003746D02*
X020037Y003746D01*
X020037Y003647D02*
X018587Y003647D01*
X018573Y003549D02*
X020037Y003549D01*
X020037Y003450D02*
X018532Y003450D01*
X018480Y003352D02*
X020104Y003352D01*
X020202Y003253D02*
X018381Y003253D01*
X018207Y003155D02*
X020301Y003155D01*
X020399Y003056D02*
X009664Y003056D01*
X009853Y003155D02*
X017228Y003155D01*
X017054Y003253D02*
X009952Y003253D01*
X010003Y003352D02*
X016955Y003352D01*
X016903Y003450D02*
X010044Y003450D01*
X010090Y003549D02*
X016862Y003549D01*
X016847Y003647D02*
X010188Y003647D01*
X010287Y003746D02*
X016847Y003746D01*
X016860Y003844D02*
X010385Y003844D01*
X010484Y003943D02*
X016900Y003943D01*
X016949Y004041D02*
X010582Y004041D01*
X010681Y004140D02*
X017047Y004140D01*
X017069Y004238D02*
X010779Y004238D01*
X010878Y004337D02*
X011377Y004337D01*
X011278Y004435D02*
X010976Y004435D01*
X011075Y004534D02*
X011180Y004534D01*
X010521Y005026D02*
X009742Y005026D01*
X009819Y005058D02*
X009970Y005210D01*
X010052Y005407D01*
X010052Y006118D01*
X009970Y006315D01*
X009819Y006467D01*
X009621Y006549D01*
X009407Y006549D01*
X009209Y006467D01*
X009058Y006315D01*
X008976Y006118D01*
X008976Y005407D01*
X009058Y005210D01*
X009209Y005058D01*
X009407Y004976D01*
X009621Y004976D01*
X009819Y005058D01*
X009886Y005125D02*
X010619Y005125D01*
X010718Y005223D02*
X009976Y005223D01*
X010017Y005322D02*
X010816Y005322D01*
X010915Y005420D02*
X010052Y005420D01*
X010052Y005519D02*
X011013Y005519D01*
X011112Y005617D02*
X010052Y005617D01*
X010052Y005716D02*
X011210Y005716D01*
X011309Y005814D02*
X010052Y005814D01*
X010052Y005913D02*
X011407Y005913D01*
X011506Y006011D02*
X010052Y006011D01*
X010052Y006110D02*
X011604Y006110D01*
X011703Y006208D02*
X010015Y006208D01*
X009974Y006307D02*
X010488Y006307D01*
X010390Y006405D02*
X009880Y006405D01*
X009729Y006504D02*
X010291Y006504D01*
X010277Y006602D02*
X006079Y006602D01*
X006079Y006572D02*
X005966Y006300D01*
X005758Y006092D01*
X005486Y005979D01*
X005192Y005979D01*
X004920Y006092D01*
X004711Y006300D01*
X004599Y006572D01*
X004599Y006866D01*
X004711Y007138D01*
X004920Y007346D01*
X005192Y007459D01*
X005486Y007459D01*
X005758Y007346D01*
X005966Y007138D01*
X006079Y006866D01*
X006079Y006572D01*
X006051Y006504D02*
X007331Y006504D01*
X007241Y006467D02*
X007090Y006315D01*
X007008Y006118D01*
X007008Y005407D01*
X007090Y005210D01*
X007241Y005058D01*
X007439Y004976D01*
X007653Y004976D01*
X007851Y005058D01*
X008002Y005210D01*
X008084Y005407D01*
X008084Y006118D01*
X008002Y006315D01*
X007851Y006467D01*
X007653Y006549D01*
X007439Y006549D01*
X007241Y006467D01*
X007180Y006405D02*
X006010Y006405D01*
X005969Y006307D02*
X007086Y006307D01*
X007045Y006208D02*
X005875Y006208D01*
X005776Y006110D02*
X007008Y006110D01*
X007008Y006011D02*
X005565Y006011D01*
X005113Y006011D02*
X004161Y006011D01*
X004161Y006110D02*
X004901Y006110D01*
X004803Y006208D02*
X004161Y006208D01*
X004161Y006307D02*
X004708Y006307D01*
X004668Y006405D02*
X004161Y006405D01*
X004093Y006504D02*
X004627Y006504D01*
X004599Y006602D02*
X003994Y006602D01*
X003898Y006701D02*
X004599Y006701D01*
X004599Y006799D02*
X003996Y006799D01*
X004095Y006898D02*
X004612Y006898D01*
X004653Y006996D02*
X004161Y006996D01*
X004161Y007095D02*
X004694Y007095D01*
X004767Y007193D02*
X004161Y007193D01*
X004161Y007292D02*
X004865Y007292D01*
X005026Y007390D02*
X004161Y007390D01*
X004131Y007489D02*
X004253Y007489D01*
X004155Y007587D02*
X004033Y007587D01*
X004843Y007489D02*
X010137Y007489D01*
X010137Y007587D02*
X008617Y007587D01*
X008716Y007686D02*
X010137Y007686D01*
X010137Y007784D02*
X008795Y007784D01*
X008795Y007883D02*
X010137Y007883D01*
X010179Y007981D02*
X008795Y007981D01*
X008795Y008080D02*
X010277Y008080D01*
X010376Y008178D02*
X008746Y008178D01*
X008705Y008277D02*
X010474Y008277D01*
X010961Y008277D02*
X011216Y008277D01*
X011315Y008375D02*
X008803Y008375D01*
X008869Y008474D02*
X011413Y008474D01*
X011509Y008671D02*
X012426Y008671D01*
X012477Y008620D02*
X012958Y008620D01*
X013297Y008960D01*
X013297Y009440D01*
X012958Y009780D01*
X012477Y009780D01*
X012137Y009440D01*
X012137Y008960D01*
X012477Y008620D01*
X012413Y008474D02*
X012022Y008474D01*
X012120Y008375D02*
X012315Y008375D01*
X012328Y008769D02*
X011607Y008769D01*
X011706Y008868D02*
X012229Y008868D01*
X012137Y008966D02*
X011797Y008966D01*
X011797Y009065D02*
X012137Y009065D01*
X012137Y009163D02*
X011797Y009163D01*
X011797Y009262D02*
X012137Y009262D01*
X012137Y009360D02*
X011797Y009360D01*
X011779Y009459D02*
X012156Y009459D01*
X012255Y009557D02*
X011680Y009557D01*
X011582Y009656D02*
X012353Y009656D01*
X012452Y009754D02*
X011483Y009754D01*
X012983Y009754D02*
X013952Y009754D01*
X013853Y009656D02*
X013082Y009656D01*
X013180Y009557D02*
X013755Y009557D01*
X013656Y009459D02*
X013279Y009459D01*
X013297Y009360D02*
X013637Y009360D01*
X013637Y009262D02*
X013297Y009262D01*
X013297Y009163D02*
X013637Y009163D01*
X013637Y009065D02*
X013297Y009065D01*
X013297Y008966D02*
X013637Y008966D01*
X013729Y008868D02*
X013206Y008868D01*
X013107Y008769D02*
X013828Y008769D01*
X013926Y008671D02*
X013009Y008671D01*
X013022Y008474D02*
X013413Y008474D01*
X013315Y008375D02*
X013120Y008375D01*
X014022Y008474D02*
X014413Y008474D01*
X014315Y008375D02*
X014120Y008375D01*
X015219Y008277D02*
X017305Y008277D01*
X017086Y008178D02*
X015317Y008178D01*
X015347Y008080D02*
X016987Y008080D01*
X016916Y007981D02*
X015347Y007981D01*
X015347Y007883D02*
X016875Y007883D01*
X016847Y007784D02*
X015347Y007784D01*
X015347Y007686D02*
X016847Y007686D01*
X016847Y007587D02*
X015308Y007587D01*
X015210Y007489D02*
X016887Y007489D01*
X016928Y007390D02*
X015111Y007390D01*
X015013Y007292D02*
X017015Y007292D01*
X017103Y007193D02*
X013734Y007193D01*
X013636Y007095D02*
X017002Y007095D01*
X016922Y006996D02*
X013537Y006996D01*
X013439Y006898D02*
X016882Y006898D01*
X016847Y006799D02*
X013340Y006799D01*
X013242Y006701D02*
X016847Y006701D01*
X016847Y006602D02*
X013143Y006602D01*
X013045Y006504D02*
X016881Y006504D01*
X016922Y006405D02*
X012946Y006405D01*
X012848Y006307D02*
X017000Y006307D01*
X017099Y006208D02*
X012749Y006208D01*
X012651Y006110D02*
X019346Y006110D01*
X019247Y006208D02*
X018336Y006208D01*
X018435Y006307D02*
X019149Y006307D01*
X019050Y006405D02*
X018513Y006405D01*
X018554Y006504D02*
X019037Y006504D01*
X019037Y006602D02*
X018587Y006602D01*
X018587Y006701D02*
X019037Y006701D01*
X019037Y006799D02*
X018587Y006799D01*
X018553Y006898D02*
X019037Y006898D01*
X019052Y006996D02*
X018512Y006996D01*
X018433Y007095D02*
X019151Y007095D01*
X019249Y007193D02*
X018332Y007193D01*
X018420Y007292D02*
X019348Y007292D01*
X021074Y007095D02*
X021151Y007095D01*
X021173Y007193D02*
X021249Y007193D01*
X021271Y007292D02*
X021348Y007292D01*
X021370Y007390D02*
X025110Y007390D01*
X025139Y008080D02*
X022059Y008080D01*
X022158Y008178D02*
X025234Y008178D01*
X025334Y008277D02*
X022256Y008277D01*
X022355Y008375D02*
X025571Y008375D01*
X022482Y010838D02*
X021953Y010838D01*
X022112Y010936D02*
X022322Y010936D01*
X022224Y011035D02*
X022211Y011035D01*
X021482Y010838D02*
X020953Y010838D01*
X021112Y010936D02*
X021322Y010936D01*
X021224Y011035D02*
X021211Y011035D01*
X020482Y010838D02*
X020379Y010838D01*
X019643Y011133D02*
X009104Y011133D01*
X009203Y011035D02*
X019602Y011035D01*
X019597Y010936D02*
X009297Y010936D01*
X009297Y010838D02*
X019597Y010838D01*
X019597Y010739D02*
X009297Y010739D01*
X009297Y010641D02*
X019597Y010641D01*
X019597Y010542D02*
X009297Y010542D01*
X009282Y010444D02*
X019597Y010444D01*
X019597Y010345D02*
X009183Y010345D01*
X009085Y010247D02*
X019597Y010247D01*
X019597Y010148D02*
X008986Y010148D01*
X008331Y011133D02*
X003971Y011133D01*
X004070Y011232D02*
X008429Y011232D01*
X008465Y011330D02*
X004970Y011330D01*
X005069Y011429D02*
X008366Y011429D01*
X008277Y011527D02*
X005157Y011527D01*
X005157Y011626D02*
X008277Y011626D01*
X008277Y011823D02*
X005157Y011823D01*
X005118Y011921D02*
X008317Y011921D01*
X008415Y012020D02*
X005020Y012020D01*
X004921Y012118D02*
X008514Y012118D01*
X008687Y012118D02*
X008747Y012118D01*
X008747Y012020D02*
X008687Y012020D01*
X008687Y011921D02*
X008747Y011921D01*
X008747Y011823D02*
X008687Y011823D01*
X009118Y011921D02*
X010676Y011921D01*
X010637Y012020D02*
X009020Y012020D01*
X008921Y012118D02*
X010637Y012118D01*
X010774Y011823D02*
X009157Y011823D01*
X009069Y011429D02*
X019923Y011429D01*
X019825Y011330D02*
X008970Y011330D01*
X009006Y011232D02*
X019726Y011232D01*
X020337Y010345D02*
X020401Y010345D01*
X019597Y010050D02*
X005984Y010050D01*
X006025Y009951D02*
X019597Y009951D01*
X014323Y007390D02*
X014111Y007390D01*
X014013Y007292D02*
X014422Y007292D01*
X014225Y007489D02*
X014210Y007489D01*
X012688Y007193D02*
X011031Y007193D01*
X010945Y007095D02*
X012589Y007095D01*
X012491Y006996D02*
X011043Y006996D01*
X011142Y006898D02*
X012392Y006898D01*
X012294Y006799D02*
X011157Y006799D01*
X010747Y006701D02*
X012195Y006701D01*
X012097Y006602D02*
X011157Y006602D01*
X011144Y006504D02*
X011998Y006504D01*
X011900Y006405D02*
X011045Y006405D01*
X010947Y006307D02*
X011801Y006307D01*
X010747Y006307D02*
X010687Y006307D01*
X010687Y006405D02*
X010747Y006405D01*
X010747Y006504D02*
X010687Y006504D01*
X010687Y006602D02*
X010747Y006602D01*
X010687Y006701D02*
X006079Y006701D01*
X006079Y006799D02*
X010277Y006799D01*
X010293Y006898D02*
X006065Y006898D01*
X006025Y006996D02*
X010392Y006996D01*
X010490Y007095D02*
X005984Y007095D01*
X005911Y007193D02*
X010404Y007193D01*
X010305Y007292D02*
X005812Y007292D01*
X005651Y007390D02*
X010207Y007390D01*
X011130Y007292D02*
X011422Y007292D01*
X011323Y007390D02*
X011228Y007390D01*
X012013Y007292D02*
X012422Y007292D01*
X012323Y007390D02*
X012111Y007390D01*
X012210Y007489D02*
X012225Y007489D01*
X011118Y008178D02*
X011059Y008178D01*
X008385Y007883D02*
X008325Y007883D01*
X008325Y007917D02*
X008325Y007507D01*
X008173Y007507D01*
X007915Y007765D01*
X007915Y007917D01*
X008325Y007917D01*
X008325Y007784D02*
X008385Y007784D01*
X008385Y007686D02*
X008325Y007686D01*
X008325Y007587D02*
X008385Y007587D01*
X008093Y007587D02*
X004942Y007587D01*
X005040Y007686D02*
X007994Y007686D01*
X007915Y007784D02*
X005139Y007784D01*
X005145Y007883D02*
X007915Y007883D01*
X007915Y007981D02*
X006566Y007981D01*
X006770Y008080D02*
X007915Y008080D01*
X007964Y008178D02*
X006868Y008178D01*
X006960Y008277D02*
X008005Y008277D01*
X007907Y008375D02*
X007000Y008375D01*
X007041Y008474D02*
X007840Y008474D01*
X007800Y008572D02*
X007067Y008572D01*
X007067Y008671D02*
X007775Y008671D01*
X007775Y008769D02*
X007067Y008769D01*
X007051Y008868D02*
X007777Y008868D01*
X007818Y008966D02*
X007011Y008966D01*
X006970Y009065D02*
X007859Y009065D01*
X007951Y009163D02*
X006893Y009163D01*
X006795Y009262D02*
X008082Y009262D01*
X006088Y007981D02*
X005145Y007981D01*
X005145Y008080D02*
X005884Y008080D01*
X005785Y008178D02*
X005145Y008178D01*
X005145Y008277D02*
X005694Y008277D01*
X005653Y008375D02*
X005056Y008375D01*
X004957Y008474D02*
X005613Y008474D01*
X005587Y008572D02*
X004859Y008572D01*
X005587Y008671D02*
X003024Y008671D01*
X003874Y008572D02*
X004238Y008572D01*
X004139Y008474D02*
X003973Y008474D01*
X005538Y008966D02*
X005643Y008966D01*
X001927Y010148D02*
X000507Y010148D01*
X000507Y010050D02*
X001792Y010050D01*
X001694Y009951D02*
X000507Y009951D01*
X000507Y009853D02*
X001601Y009853D01*
X001560Y009754D02*
X000507Y009754D01*
X000507Y009656D02*
X001519Y009656D01*
X001478Y009557D02*
X000507Y009557D01*
X000507Y009459D02*
X001464Y009459D01*
X001106Y009360D02*
X000507Y009360D01*
X000507Y009262D02*
X000937Y009262D01*
X000838Y009163D02*
X000507Y009163D01*
X000507Y009065D02*
X000762Y009065D01*
X000721Y008966D02*
X000507Y008966D01*
X000507Y008868D02*
X000680Y008868D01*
X000665Y008769D02*
X000507Y008769D01*
X000507Y008671D02*
X000665Y008671D01*
X000665Y008572D02*
X000507Y008572D01*
X000507Y008474D02*
X000691Y008474D01*
X000731Y008375D02*
X000507Y008375D01*
X000507Y008277D02*
X000772Y008277D01*
X000833Y008178D02*
X000507Y008178D01*
X000507Y008080D02*
X000760Y008080D01*
X000719Y007981D02*
X000507Y007981D01*
X000507Y007883D02*
X000678Y007883D01*
X000665Y007784D02*
X000507Y007784D01*
X000507Y007686D02*
X000665Y007686D01*
X000665Y007587D02*
X000507Y007587D01*
X000507Y007489D02*
X000693Y007489D01*
X000733Y007390D02*
X000507Y007390D01*
X000507Y007292D02*
X000774Y007292D01*
X000868Y007193D02*
X000507Y007193D01*
X000507Y007095D02*
X000967Y007095D01*
X001178Y006996D02*
X000507Y006996D01*
X000507Y006898D02*
X001140Y006898D01*
X001134Y006799D02*
X000507Y006799D01*
X000507Y006701D02*
X001134Y006701D01*
X001134Y006602D02*
X000507Y006602D01*
X000507Y006504D02*
X001139Y006504D01*
X001118Y006405D02*
X000507Y006405D01*
X000507Y006307D02*
X000942Y006307D01*
X000843Y006208D02*
X000507Y006208D01*
X000507Y006110D02*
X000764Y006110D01*
X000723Y006011D02*
X000507Y006011D01*
X000507Y005913D02*
X000682Y005913D01*
X000665Y005814D02*
X000507Y005814D01*
X000507Y005716D02*
X000665Y005716D01*
X000665Y005617D02*
X000507Y005617D01*
X000507Y005519D02*
X000688Y005519D01*
X000729Y005420D02*
X000507Y005420D01*
X000507Y005322D02*
X000770Y005322D01*
X000838Y005223D02*
X000507Y005223D01*
X000507Y005125D02*
X000762Y005125D01*
X000721Y005026D02*
X000507Y005026D01*
X000507Y004928D02*
X000680Y004928D01*
X000665Y004829D02*
X000507Y004829D01*
X000507Y004731D02*
X000665Y004731D01*
X000665Y004632D02*
X000507Y004632D01*
X000507Y004534D02*
X000691Y004534D01*
X000731Y004435D02*
X000507Y004435D01*
X000507Y004337D02*
X000772Y004337D01*
X000863Y004238D02*
X000507Y004238D01*
X000507Y004140D02*
X000962Y004140D01*
X001166Y004041D02*
X000507Y004041D01*
X000507Y003943D02*
X001464Y003943D01*
X001478Y003844D02*
X000507Y003844D01*
X000507Y003746D02*
X001518Y003746D01*
X001559Y003647D02*
X000507Y003647D01*
X000507Y003549D02*
X001600Y003549D01*
X001692Y003450D02*
X000507Y003450D01*
X000507Y003352D02*
X001790Y003352D01*
X001922Y003253D02*
X000507Y003253D01*
X000507Y003155D02*
X002160Y003155D01*
X000507Y002859D02*
X026427Y002859D01*
X026427Y002761D02*
X000507Y002761D01*
X000507Y002071D02*
X000930Y002071D01*
X000696Y001973D02*
X000507Y001973D01*
X000507Y001874D02*
X000598Y001874D01*
X005536Y003056D02*
X007396Y003056D01*
X007207Y003155D02*
X005762Y003155D01*
X005861Y003253D02*
X007108Y003253D01*
X007056Y003352D02*
X005959Y003352D01*
X006002Y003450D02*
X007016Y003450D01*
X007008Y003549D02*
X006043Y003549D01*
X006075Y003647D02*
X007008Y003647D01*
X007008Y003746D02*
X006075Y003746D01*
X006075Y003844D02*
X007008Y003844D01*
X007008Y003943D02*
X006066Y003943D01*
X006025Y004041D02*
X007008Y004041D01*
X006381Y004238D02*
X006281Y004238D01*
X006281Y004337D02*
X006381Y004337D01*
X006381Y004435D02*
X006281Y004435D01*
X006281Y004534D02*
X006381Y004534D01*
X006381Y004632D02*
X006281Y004632D01*
X006925Y004829D02*
X010324Y004829D01*
X010422Y004928D02*
X006903Y004928D01*
X006862Y005026D02*
X007317Y005026D01*
X007174Y005125D02*
X006797Y005125D01*
X006695Y005223D02*
X007084Y005223D01*
X007043Y005322D02*
X006501Y005322D01*
X006381Y005322D02*
X006281Y005322D01*
X006281Y005223D02*
X006381Y005223D01*
X006381Y005125D02*
X006281Y005125D01*
X006281Y005026D02*
X006381Y005026D01*
X006381Y004928D02*
X006281Y004928D01*
X005967Y005223D02*
X005145Y005223D01*
X005145Y005125D02*
X005864Y005125D01*
X005800Y005026D02*
X005058Y005026D01*
X004959Y004928D02*
X005759Y004928D01*
X006161Y005322D02*
X005145Y005322D01*
X005145Y005420D02*
X007008Y005420D01*
X007008Y005519D02*
X005145Y005519D01*
X005137Y005617D02*
X007008Y005617D01*
X007008Y005716D02*
X005038Y005716D01*
X004940Y005814D02*
X007008Y005814D01*
X007008Y005913D02*
X004841Y005913D01*
X004255Y005913D02*
X004133Y005913D01*
X004157Y005814D02*
X004035Y005814D01*
X004058Y005716D02*
X003936Y005716D01*
X003954Y005617D02*
X003960Y005617D01*
X003107Y005223D02*
X001971Y005223D01*
X002048Y005125D02*
X003154Y005125D01*
X003252Y005026D02*
X002088Y005026D01*
X002704Y004928D02*
X003351Y004928D01*
X007774Y005026D02*
X009286Y005026D01*
X009143Y005125D02*
X007917Y005125D01*
X008008Y005223D02*
X009052Y005223D01*
X009011Y005322D02*
X008048Y005322D01*
X008084Y005420D02*
X008976Y005420D01*
X008976Y005519D02*
X008084Y005519D01*
X008084Y005617D02*
X008976Y005617D01*
X008976Y005716D02*
X008084Y005716D01*
X008084Y005814D02*
X008976Y005814D01*
X008976Y005913D02*
X008084Y005913D01*
X008084Y006011D02*
X008976Y006011D01*
X008976Y006110D02*
X008084Y006110D01*
X008046Y006208D02*
X009014Y006208D01*
X009055Y006307D02*
X008005Y006307D01*
X007912Y006405D02*
X009148Y006405D01*
X009299Y006504D02*
X007761Y006504D01*
X007839Y004534D02*
X009221Y004534D01*
X009116Y004435D02*
X007944Y004435D01*
X008019Y004337D02*
X009041Y004337D01*
X009000Y004238D02*
X008060Y004238D01*
X008084Y004140D02*
X008976Y004140D01*
X008976Y004041D02*
X008084Y004041D01*
X008084Y003943D02*
X008976Y003943D01*
X008976Y003844D02*
X008084Y003844D01*
X008084Y003746D02*
X008976Y003746D01*
X008976Y003647D02*
X008084Y003647D01*
X008084Y003549D02*
X008976Y003549D01*
X008984Y003450D02*
X008076Y003450D01*
X008035Y003352D02*
X009025Y003352D01*
X009077Y003253D02*
X007983Y003253D01*
X007885Y003155D02*
X009175Y003155D01*
X009364Y003056D02*
X007696Y003056D01*
X010112Y001086D02*
X010448Y001086D01*
X010350Y001185D02*
X010210Y001185D01*
X011112Y001086D02*
X011573Y001086D01*
X011475Y001185D02*
X011210Y001185D01*
X011309Y001283D02*
X011376Y001283D01*
X014875Y001677D02*
X014935Y001677D01*
X014935Y001776D02*
X014875Y001776D01*
X014875Y001874D02*
X014935Y001874D01*
X014935Y001973D02*
X014875Y001973D01*
X013377Y004337D02*
X013058Y004337D01*
X013156Y004435D02*
X013278Y004435D01*
X012377Y004337D02*
X012058Y004337D01*
X012156Y004435D02*
X012278Y004435D01*
X012261Y005322D02*
X012174Y005322D01*
X012075Y005420D02*
X012360Y005420D01*
X013075Y005420D02*
X013360Y005420D01*
X013261Y005322D02*
X013174Y005322D01*
X014687Y005322D02*
X014747Y005322D01*
X021042Y004337D02*
X021317Y004337D01*
X021415Y004238D02*
X021141Y004238D01*
X021239Y004140D02*
X022990Y004140D01*
X022950Y004041D02*
X021338Y004041D01*
X021397Y003943D02*
X022909Y003943D01*
X022877Y003844D02*
X021397Y003844D01*
X021397Y003746D02*
X022877Y003746D01*
X022877Y003647D02*
X021397Y003647D01*
X021397Y003549D02*
X022877Y003549D01*
X022912Y003450D02*
X021397Y003450D01*
X021331Y003352D02*
X022952Y003352D01*
X022993Y003253D02*
X021233Y003253D01*
X021134Y003155D02*
X023074Y003155D01*
X022987Y002564D02*
X022448Y002564D01*
X022610Y002465D02*
X022824Y002465D01*
X022726Y002367D02*
X022709Y002367D01*
X024121Y002958D02*
X026427Y002958D01*
X026427Y003056D02*
X024262Y003056D01*
X024360Y003155D02*
X026427Y003155D01*
X026427Y003253D02*
X024442Y003253D01*
X024483Y003352D02*
X026427Y003352D01*
X026427Y003450D02*
X024523Y003450D01*
X024557Y003549D02*
X026427Y003549D01*
X026427Y003647D02*
X024557Y003647D01*
X024557Y003746D02*
X026427Y003746D01*
X026427Y003844D02*
X024557Y003844D01*
X024526Y003943D02*
X026427Y003943D01*
X026427Y004041D02*
X024485Y004041D01*
X024444Y004140D02*
X026427Y004140D01*
X026427Y004238D02*
X024367Y004238D01*
X024268Y004337D02*
X026427Y004337D01*
X026427Y004435D02*
X024137Y004435D01*
X023899Y004534D02*
X026427Y004534D01*
X026427Y004632D02*
X022257Y004632D01*
X022257Y004534D02*
X023536Y004534D01*
X023298Y004435D02*
X022217Y004435D01*
X022118Y004337D02*
X023167Y004337D01*
X023068Y004238D02*
X022020Y004238D01*
X021767Y004238D02*
X021667Y004238D01*
X021667Y004337D02*
X021767Y004337D01*
X021767Y004435D02*
X021667Y004435D01*
X021667Y004534D02*
X021767Y004534D01*
X021767Y004632D02*
X021667Y004632D01*
X026004Y002071D02*
X026427Y002071D01*
X026427Y001973D02*
X026238Y001973D01*
X026337Y001874D02*
X026427Y001874D01*
X013971Y011626D02*
X012964Y011626D01*
X012958Y011620D02*
X013297Y011960D01*
X013297Y012440D01*
X012958Y012780D01*
X012477Y012780D01*
X012137Y012440D01*
X012137Y011960D01*
X012477Y011620D01*
X012958Y011620D01*
X013062Y011724D02*
X013873Y011724D01*
X013774Y011823D02*
X013161Y011823D01*
X013259Y011921D02*
X013676Y011921D01*
X013637Y012020D02*
X013297Y012020D01*
X013297Y012118D02*
X013637Y012118D01*
X013637Y012217D02*
X013297Y012217D01*
X013297Y012315D02*
X013637Y012315D01*
X013637Y012414D02*
X013297Y012414D01*
X013225Y012512D02*
X013710Y012512D01*
X013808Y012611D02*
X013127Y012611D01*
X013028Y012709D02*
X013907Y012709D01*
X012407Y012709D02*
X011528Y012709D01*
X011627Y012611D02*
X012308Y012611D01*
X012210Y012512D02*
X011725Y012512D01*
X011797Y012414D02*
X012137Y012414D01*
X012137Y012315D02*
X011797Y012315D01*
X011797Y012217D02*
X012137Y012217D01*
X012137Y012118D02*
X011797Y012118D01*
X011797Y012020D02*
X012137Y012020D01*
X012176Y011921D02*
X011759Y011921D01*
X011661Y011823D02*
X012274Y011823D01*
X012373Y011724D02*
X011562Y011724D01*
X011464Y011626D02*
X012471Y011626D01*
X004747Y011626D02*
X004687Y011626D01*
X004687Y011527D02*
X004747Y011527D01*
X004747Y011429D02*
X004687Y011429D01*
X004687Y011330D02*
X004747Y011330D01*
X004465Y011330D02*
X004168Y011330D01*
X004267Y011429D02*
X004366Y011429D01*
X004687Y012020D02*
X004747Y012020D01*
X004747Y012118D02*
X004687Y012118D01*
M02*
