G75*
%MOIN*%
%OFA0B0*%
%FSLAX24Y24*%
%IPPOS*%
%LPD*%
%AMOC8*
5,1,8,0,0,1.08239X$1,22.5*
%
%ADD10C,0.1330*%
%ADD11OC8,0.0660*%
%ADD12C,0.0660*%
%ADD13OC8,0.0694*%
%ADD14C,0.1346*%
%ADD15C,0.0576*%
%ADD16OC8,0.0760*%
%ADD17OC8,0.0860*%
%ADD18C,0.0860*%
%ADD19C,0.1180*%
%ADD20C,0.0700*%
%ADD21C,0.0980*%
%ADD22C,0.0660*%
D10*
X001217Y001200D03*
X001217Y012200D03*
X025717Y012200D03*
X025717Y001200D03*
D11*
X019900Y001782D03*
X018900Y001782D03*
X014905Y001575D03*
X011905Y001575D03*
X010780Y001575D03*
X009780Y001575D03*
X012800Y003823D03*
X013800Y003823D03*
X008355Y007947D03*
X011217Y009200D03*
X012717Y009200D03*
X014217Y009137D03*
X014217Y012137D03*
X012717Y012200D03*
X011217Y012200D03*
X004717Y011700D03*
X003717Y011700D03*
X024137Y011515D03*
X024137Y012515D03*
D12*
X008355Y008747D03*
D13*
X004548Y008039D03*
X003564Y008039D03*
X003564Y007212D03*
X003564Y006188D03*
X003564Y005361D03*
X004548Y005361D03*
D14*
X002387Y004060D03*
X002057Y006700D03*
X002387Y009340D03*
D15*
X007546Y006011D02*
X007546Y005514D01*
X009514Y005514D02*
X009514Y006011D01*
X009514Y004073D02*
X009514Y003577D01*
X007546Y003577D02*
X007546Y004073D01*
D16*
X011717Y004887D03*
X012717Y004887D03*
X013717Y004887D03*
X014717Y004887D03*
X014717Y007887D03*
X013717Y007887D03*
X012717Y007887D03*
X011717Y007887D03*
D17*
X019717Y006700D03*
X020717Y007700D03*
X021717Y006700D03*
X020717Y005700D03*
X021717Y004700D03*
X020717Y003700D03*
X021717Y008700D03*
X020717Y009700D03*
D18*
X025717Y007700D03*
X025717Y005700D03*
D19*
X023717Y003700D03*
X023717Y009700D03*
D20*
X022717Y011390D02*
X022717Y012010D01*
X021717Y012010D02*
X021717Y011390D01*
X020717Y011390D02*
X020717Y012010D01*
X021217Y002010D02*
X021217Y001390D01*
X022217Y001390D02*
X022217Y002010D01*
X023217Y002010D02*
X023217Y001390D01*
D21*
X006331Y004746D03*
X005335Y003774D03*
X001405Y004743D03*
X001405Y005723D03*
X001405Y007703D03*
X001405Y008683D03*
X005335Y009683D03*
X006327Y008683D03*
X005339Y006719D03*
D22*
X017427Y006700D02*
X018007Y006700D01*
X018007Y007700D02*
X017427Y007700D01*
X017427Y004700D02*
X018007Y004700D01*
X018007Y003700D02*
X017427Y003700D01*
M02*
