G75*
%MOIN*%
%OFA0B0*%
%FSLAX24Y24*%
%IPPOS*%
%LPD*%
%AMOC8*
5,1,8,0,0,1.08239X$1,22.5*
%
%ADD10C,0.0000*%
%ADD11C,0.0060*%
%ADD12C,0.0100*%
%ADD13R,0.0200X0.0150*%
D10*
X000217Y000200D02*
X026717Y000200D01*
X026717Y013200D01*
X000217Y013200D01*
X000217Y000200D01*
X000592Y001200D02*
X000594Y001250D01*
X000600Y001299D01*
X000610Y001348D01*
X000623Y001395D01*
X000641Y001442D01*
X000662Y001487D01*
X000686Y001530D01*
X000714Y001571D01*
X000745Y001610D01*
X000779Y001646D01*
X000816Y001680D01*
X000856Y001710D01*
X000897Y001737D01*
X000941Y001761D01*
X000986Y001781D01*
X001033Y001797D01*
X001081Y001810D01*
X001130Y001819D01*
X001180Y001824D01*
X001229Y001825D01*
X001279Y001822D01*
X001328Y001815D01*
X001377Y001804D01*
X001424Y001790D01*
X001470Y001771D01*
X001515Y001749D01*
X001558Y001724D01*
X001598Y001695D01*
X001636Y001663D01*
X001672Y001629D01*
X001705Y001591D01*
X001734Y001551D01*
X001760Y001509D01*
X001783Y001465D01*
X001802Y001419D01*
X001818Y001372D01*
X001830Y001323D01*
X001838Y001274D01*
X001842Y001225D01*
X001842Y001175D01*
X001838Y001126D01*
X001830Y001077D01*
X001818Y001028D01*
X001802Y000981D01*
X001783Y000935D01*
X001760Y000891D01*
X001734Y000849D01*
X001705Y000809D01*
X001672Y000771D01*
X001636Y000737D01*
X001598Y000705D01*
X001558Y000676D01*
X001515Y000651D01*
X001470Y000629D01*
X001424Y000610D01*
X001377Y000596D01*
X001328Y000585D01*
X001279Y000578D01*
X001229Y000575D01*
X001180Y000576D01*
X001130Y000581D01*
X001081Y000590D01*
X001033Y000603D01*
X000986Y000619D01*
X000941Y000639D01*
X000897Y000663D01*
X000856Y000690D01*
X000816Y000720D01*
X000779Y000754D01*
X000745Y000790D01*
X000714Y000829D01*
X000686Y000870D01*
X000662Y000913D01*
X000641Y000958D01*
X000623Y001005D01*
X000610Y001052D01*
X000600Y001101D01*
X000594Y001150D01*
X000592Y001200D01*
X000592Y012200D02*
X000594Y012250D01*
X000600Y012299D01*
X000610Y012348D01*
X000623Y012395D01*
X000641Y012442D01*
X000662Y012487D01*
X000686Y012530D01*
X000714Y012571D01*
X000745Y012610D01*
X000779Y012646D01*
X000816Y012680D01*
X000856Y012710D01*
X000897Y012737D01*
X000941Y012761D01*
X000986Y012781D01*
X001033Y012797D01*
X001081Y012810D01*
X001130Y012819D01*
X001180Y012824D01*
X001229Y012825D01*
X001279Y012822D01*
X001328Y012815D01*
X001377Y012804D01*
X001424Y012790D01*
X001470Y012771D01*
X001515Y012749D01*
X001558Y012724D01*
X001598Y012695D01*
X001636Y012663D01*
X001672Y012629D01*
X001705Y012591D01*
X001734Y012551D01*
X001760Y012509D01*
X001783Y012465D01*
X001802Y012419D01*
X001818Y012372D01*
X001830Y012323D01*
X001838Y012274D01*
X001842Y012225D01*
X001842Y012175D01*
X001838Y012126D01*
X001830Y012077D01*
X001818Y012028D01*
X001802Y011981D01*
X001783Y011935D01*
X001760Y011891D01*
X001734Y011849D01*
X001705Y011809D01*
X001672Y011771D01*
X001636Y011737D01*
X001598Y011705D01*
X001558Y011676D01*
X001515Y011651D01*
X001470Y011629D01*
X001424Y011610D01*
X001377Y011596D01*
X001328Y011585D01*
X001279Y011578D01*
X001229Y011575D01*
X001180Y011576D01*
X001130Y011581D01*
X001081Y011590D01*
X001033Y011603D01*
X000986Y011619D01*
X000941Y011639D01*
X000897Y011663D01*
X000856Y011690D01*
X000816Y011720D01*
X000779Y011754D01*
X000745Y011790D01*
X000714Y011829D01*
X000686Y011870D01*
X000662Y011913D01*
X000641Y011958D01*
X000623Y012005D01*
X000610Y012052D01*
X000600Y012101D01*
X000594Y012150D01*
X000592Y012200D01*
X023167Y009700D02*
X023169Y009747D01*
X023175Y009793D01*
X023185Y009839D01*
X023198Y009883D01*
X023216Y009927D01*
X023237Y009968D01*
X023261Y010008D01*
X023289Y010046D01*
X023320Y010081D01*
X023354Y010113D01*
X023390Y010142D01*
X023429Y010168D01*
X023469Y010191D01*
X023512Y010210D01*
X023556Y010226D01*
X023601Y010238D01*
X023647Y010246D01*
X023694Y010250D01*
X023740Y010250D01*
X023787Y010246D01*
X023833Y010238D01*
X023878Y010226D01*
X023922Y010210D01*
X023965Y010191D01*
X024005Y010168D01*
X024044Y010142D01*
X024080Y010113D01*
X024114Y010081D01*
X024145Y010046D01*
X024173Y010008D01*
X024197Y009968D01*
X024218Y009927D01*
X024236Y009883D01*
X024249Y009839D01*
X024259Y009793D01*
X024265Y009747D01*
X024267Y009700D01*
X024265Y009653D01*
X024259Y009607D01*
X024249Y009561D01*
X024236Y009517D01*
X024218Y009473D01*
X024197Y009432D01*
X024173Y009392D01*
X024145Y009354D01*
X024114Y009319D01*
X024080Y009287D01*
X024044Y009258D01*
X024005Y009232D01*
X023965Y009209D01*
X023922Y009190D01*
X023878Y009174D01*
X023833Y009162D01*
X023787Y009154D01*
X023740Y009150D01*
X023694Y009150D01*
X023647Y009154D01*
X023601Y009162D01*
X023556Y009174D01*
X023512Y009190D01*
X023469Y009209D01*
X023429Y009232D01*
X023390Y009258D01*
X023354Y009287D01*
X023320Y009319D01*
X023289Y009354D01*
X023261Y009392D01*
X023237Y009432D01*
X023216Y009473D01*
X023198Y009517D01*
X023185Y009561D01*
X023175Y009607D01*
X023169Y009653D01*
X023167Y009700D01*
X025092Y012200D02*
X025094Y012250D01*
X025100Y012299D01*
X025110Y012348D01*
X025123Y012395D01*
X025141Y012442D01*
X025162Y012487D01*
X025186Y012530D01*
X025214Y012571D01*
X025245Y012610D01*
X025279Y012646D01*
X025316Y012680D01*
X025356Y012710D01*
X025397Y012737D01*
X025441Y012761D01*
X025486Y012781D01*
X025533Y012797D01*
X025581Y012810D01*
X025630Y012819D01*
X025680Y012824D01*
X025729Y012825D01*
X025779Y012822D01*
X025828Y012815D01*
X025877Y012804D01*
X025924Y012790D01*
X025970Y012771D01*
X026015Y012749D01*
X026058Y012724D01*
X026098Y012695D01*
X026136Y012663D01*
X026172Y012629D01*
X026205Y012591D01*
X026234Y012551D01*
X026260Y012509D01*
X026283Y012465D01*
X026302Y012419D01*
X026318Y012372D01*
X026330Y012323D01*
X026338Y012274D01*
X026342Y012225D01*
X026342Y012175D01*
X026338Y012126D01*
X026330Y012077D01*
X026318Y012028D01*
X026302Y011981D01*
X026283Y011935D01*
X026260Y011891D01*
X026234Y011849D01*
X026205Y011809D01*
X026172Y011771D01*
X026136Y011737D01*
X026098Y011705D01*
X026058Y011676D01*
X026015Y011651D01*
X025970Y011629D01*
X025924Y011610D01*
X025877Y011596D01*
X025828Y011585D01*
X025779Y011578D01*
X025729Y011575D01*
X025680Y011576D01*
X025630Y011581D01*
X025581Y011590D01*
X025533Y011603D01*
X025486Y011619D01*
X025441Y011639D01*
X025397Y011663D01*
X025356Y011690D01*
X025316Y011720D01*
X025279Y011754D01*
X025245Y011790D01*
X025214Y011829D01*
X025186Y011870D01*
X025162Y011913D01*
X025141Y011958D01*
X025123Y012005D01*
X025110Y012052D01*
X025100Y012101D01*
X025094Y012150D01*
X025092Y012200D01*
X023167Y003700D02*
X023169Y003747D01*
X023175Y003793D01*
X023185Y003839D01*
X023198Y003883D01*
X023216Y003927D01*
X023237Y003968D01*
X023261Y004008D01*
X023289Y004046D01*
X023320Y004081D01*
X023354Y004113D01*
X023390Y004142D01*
X023429Y004168D01*
X023469Y004191D01*
X023512Y004210D01*
X023556Y004226D01*
X023601Y004238D01*
X023647Y004246D01*
X023694Y004250D01*
X023740Y004250D01*
X023787Y004246D01*
X023833Y004238D01*
X023878Y004226D01*
X023922Y004210D01*
X023965Y004191D01*
X024005Y004168D01*
X024044Y004142D01*
X024080Y004113D01*
X024114Y004081D01*
X024145Y004046D01*
X024173Y004008D01*
X024197Y003968D01*
X024218Y003927D01*
X024236Y003883D01*
X024249Y003839D01*
X024259Y003793D01*
X024265Y003747D01*
X024267Y003700D01*
X024265Y003653D01*
X024259Y003607D01*
X024249Y003561D01*
X024236Y003517D01*
X024218Y003473D01*
X024197Y003432D01*
X024173Y003392D01*
X024145Y003354D01*
X024114Y003319D01*
X024080Y003287D01*
X024044Y003258D01*
X024005Y003232D01*
X023965Y003209D01*
X023922Y003190D01*
X023878Y003174D01*
X023833Y003162D01*
X023787Y003154D01*
X023740Y003150D01*
X023694Y003150D01*
X023647Y003154D01*
X023601Y003162D01*
X023556Y003174D01*
X023512Y003190D01*
X023469Y003209D01*
X023429Y003232D01*
X023390Y003258D01*
X023354Y003287D01*
X023320Y003319D01*
X023289Y003354D01*
X023261Y003392D01*
X023237Y003432D01*
X023216Y003473D01*
X023198Y003517D01*
X023185Y003561D01*
X023175Y003607D01*
X023169Y003653D01*
X023167Y003700D01*
X025092Y001200D02*
X025094Y001250D01*
X025100Y001299D01*
X025110Y001348D01*
X025123Y001395D01*
X025141Y001442D01*
X025162Y001487D01*
X025186Y001530D01*
X025214Y001571D01*
X025245Y001610D01*
X025279Y001646D01*
X025316Y001680D01*
X025356Y001710D01*
X025397Y001737D01*
X025441Y001761D01*
X025486Y001781D01*
X025533Y001797D01*
X025581Y001810D01*
X025630Y001819D01*
X025680Y001824D01*
X025729Y001825D01*
X025779Y001822D01*
X025828Y001815D01*
X025877Y001804D01*
X025924Y001790D01*
X025970Y001771D01*
X026015Y001749D01*
X026058Y001724D01*
X026098Y001695D01*
X026136Y001663D01*
X026172Y001629D01*
X026205Y001591D01*
X026234Y001551D01*
X026260Y001509D01*
X026283Y001465D01*
X026302Y001419D01*
X026318Y001372D01*
X026330Y001323D01*
X026338Y001274D01*
X026342Y001225D01*
X026342Y001175D01*
X026338Y001126D01*
X026330Y001077D01*
X026318Y001028D01*
X026302Y000981D01*
X026283Y000935D01*
X026260Y000891D01*
X026234Y000849D01*
X026205Y000809D01*
X026172Y000771D01*
X026136Y000737D01*
X026098Y000705D01*
X026058Y000676D01*
X026015Y000651D01*
X025970Y000629D01*
X025924Y000610D01*
X025877Y000596D01*
X025828Y000585D01*
X025779Y000578D01*
X025729Y000575D01*
X025680Y000576D01*
X025630Y000581D01*
X025581Y000590D01*
X025533Y000603D01*
X025486Y000619D01*
X025441Y000639D01*
X025397Y000663D01*
X025356Y000690D01*
X025316Y000720D01*
X025279Y000754D01*
X025245Y000790D01*
X025214Y000829D01*
X025186Y000870D01*
X025162Y000913D01*
X025141Y000958D01*
X025123Y001005D01*
X025110Y001052D01*
X025100Y001101D01*
X025094Y001150D01*
X025092Y001200D01*
D11*
X020350Y001382D02*
X020350Y002182D01*
X020348Y002199D01*
X020344Y002216D01*
X020337Y002232D01*
X020327Y002246D01*
X020314Y002259D01*
X020300Y002269D01*
X020284Y002276D01*
X020267Y002280D01*
X020250Y002282D01*
X018550Y002282D01*
X018533Y002280D01*
X018516Y002276D01*
X018500Y002269D01*
X018486Y002259D01*
X018473Y002246D01*
X018463Y002232D01*
X018456Y002216D01*
X018452Y002199D01*
X018450Y002182D01*
X018450Y001382D01*
X018452Y001365D01*
X018456Y001348D01*
X018463Y001332D01*
X018473Y001318D01*
X018486Y001305D01*
X018500Y001295D01*
X018516Y001288D01*
X018533Y001284D01*
X018550Y001282D01*
X020250Y001282D01*
X020267Y001284D01*
X020284Y001288D01*
X020300Y001295D01*
X020314Y001305D01*
X020327Y001318D01*
X020337Y001332D01*
X020344Y001348D01*
X020348Y001365D01*
X020350Y001382D01*
X019550Y001782D02*
X019500Y001782D01*
X019300Y001782D02*
X019250Y001782D01*
X014250Y003423D02*
X014250Y004223D01*
X014248Y004240D01*
X014244Y004257D01*
X014237Y004273D01*
X014227Y004287D01*
X014214Y004300D01*
X014200Y004310D01*
X014184Y004317D01*
X014167Y004321D01*
X014150Y004323D01*
X012450Y004323D01*
X012433Y004321D01*
X012416Y004317D01*
X012400Y004310D01*
X012386Y004300D01*
X012373Y004287D01*
X012363Y004273D01*
X012356Y004257D01*
X012352Y004240D01*
X012350Y004223D01*
X012350Y003423D01*
X012352Y003406D01*
X012356Y003389D01*
X012363Y003373D01*
X012373Y003359D01*
X012386Y003346D01*
X012400Y003336D01*
X012416Y003329D01*
X012433Y003325D01*
X012450Y003323D01*
X014150Y003323D01*
X014167Y003325D01*
X014184Y003329D01*
X014200Y003336D01*
X014214Y003346D01*
X014227Y003359D01*
X014237Y003373D01*
X014244Y003389D01*
X014248Y003406D01*
X014250Y003423D01*
X013450Y003823D02*
X013400Y003823D01*
X013200Y003823D02*
X013150Y003823D01*
X013917Y009637D02*
X014517Y009637D01*
X014534Y009639D01*
X014551Y009643D01*
X014567Y009650D01*
X014581Y009660D01*
X014594Y009673D01*
X014604Y009687D01*
X014611Y009703D01*
X014615Y009720D01*
X014617Y009737D01*
X014617Y009887D01*
X014567Y009937D01*
X014567Y011337D01*
X014617Y011387D01*
X014617Y011537D01*
X014615Y011554D01*
X014611Y011571D01*
X014604Y011587D01*
X014594Y011601D01*
X014581Y011614D01*
X014567Y011624D01*
X014551Y011631D01*
X014534Y011635D01*
X014517Y011637D01*
X013917Y011637D01*
X013900Y011635D01*
X013883Y011631D01*
X013867Y011624D01*
X013853Y011614D01*
X013840Y011601D01*
X013830Y011587D01*
X013823Y011571D01*
X013819Y011554D01*
X013817Y011537D01*
X013817Y011387D01*
X013867Y011337D01*
X013867Y009937D01*
X013817Y009887D01*
X013817Y009737D01*
X013819Y009720D01*
X013823Y009703D01*
X013830Y009687D01*
X013840Y009673D01*
X013853Y009660D01*
X013867Y009650D01*
X013883Y009643D01*
X013900Y009639D01*
X013917Y009637D01*
X023637Y011165D02*
X023637Y012865D01*
X023639Y012882D01*
X023643Y012899D01*
X023650Y012915D01*
X023660Y012929D01*
X023673Y012942D01*
X023687Y012952D01*
X023703Y012959D01*
X023720Y012963D01*
X023737Y012965D01*
X024537Y012965D01*
X024554Y012963D01*
X024571Y012959D01*
X024587Y012952D01*
X024601Y012942D01*
X024614Y012929D01*
X024624Y012915D01*
X024631Y012899D01*
X024635Y012882D01*
X024637Y012865D01*
X024637Y011165D01*
X024635Y011148D01*
X024631Y011131D01*
X024624Y011115D01*
X024614Y011101D01*
X024601Y011088D01*
X024587Y011078D01*
X024571Y011071D01*
X024554Y011067D01*
X024537Y011065D01*
X023737Y011065D01*
X023720Y011067D01*
X023703Y011071D01*
X023687Y011078D01*
X023673Y011088D01*
X023660Y011101D01*
X023650Y011115D01*
X023643Y011131D01*
X023639Y011148D01*
X023637Y011165D01*
X024137Y011865D02*
X024137Y011915D01*
X024137Y012115D02*
X024137Y012165D01*
D12*
X024137Y012115D02*
X023837Y012115D01*
X024137Y012115D02*
X024437Y012115D01*
X024437Y011915D02*
X024137Y011915D01*
X023837Y011915D01*
X013400Y004123D02*
X013400Y003823D01*
X013400Y003523D01*
X013200Y003523D02*
X013200Y003823D01*
X013200Y004123D01*
X019300Y002082D02*
X019300Y001782D01*
X019300Y001482D01*
X019500Y001482D02*
X019500Y001782D01*
X019500Y002082D01*
D13*
X014217Y009562D03*
X014217Y011712D03*
M02*
