%
M48
M72
T01C0.0236
T02C0.0320
T03C0.0354
T04C0.0360
T05C0.0520
T06C0.0551
T07C0.0866
T08C0.1100
T09C0.1250
%
T01
X7546Y3825
X9514Y3825
X9514Y5762
X7546Y5762
T02
X11717Y4887
X12717Y4887
X13717Y4887
X14717Y4887
X13800Y3823
X12800Y3823
X11905Y1575
X10780Y1575
X9780Y1575
X14905Y1575
X18900Y1782
X19900Y1782
X17717Y3700
X17717Y4700
X17717Y6700
X17717Y7700
X14717Y7887
X13717Y7887
X12717Y7887
X11717Y7887
X14217Y9137
X12717Y9200
X11217Y9200
X8355Y8747
X8355Y7947
X4717Y11700
X3717Y11700
X11217Y12200
X12717Y12200
X14217Y12137
X24137Y12515
X24137Y11515
T03
X4548Y8039
X3564Y8039
X3564Y7212
X3564Y6188
X3564Y5361
X4548Y5361
T04
X20717Y11700
X21717Y11700
X22717Y11700
X22217Y1700
X21217Y1700
X23217Y1700
T05
X20717Y3700
X21717Y4700
X20717Y5700
X19717Y6700
X20717Y7700
X21717Y6700
X21717Y8700
X20717Y9700
X25717Y7700
X25717Y5700
T06
X6331Y4746
X5335Y3774
X1405Y4743
X1405Y5723
X1405Y7703
X1405Y8683
X5335Y9683
X6327Y8683
X5339Y6719
T07
X2057Y6700
X2387Y9340
X2387Y4060
T08
X23717Y3700
X23717Y9700
T09
X1217Y1200
X1217Y12200
X25717Y12200
X25717Y1200
M30
